<?xml version="1.0" encoding="UTF-8" standalone="no"?>
<!-- Created with Inkscape (http://www.inkscape.org/) -->

<svg
   xmlns:ns0="http://www.iki.fi/pav/software/textext/"
   xmlns:dc="http://purl.org/dc/elements/1.1/"
   xmlns:cc="http://creativecommons.org/ns#"
   xmlns:rdf="http://www.w3.org/1999/02/22-rdf-syntax-ns#"
   xmlns:svg="http://www.w3.org/2000/svg"
   xmlns="http://www.w3.org/2000/svg"
   xmlns:sodipodi="http://sodipodi.sourceforge.net/DTD/sodipodi-0.dtd"
   xmlns:inkscape="http://www.inkscape.org/namespaces/inkscape"
   width="744.09448819"
   height="1052.3622047"
   id="svg2"
   version="1.1"
   inkscape:version="0.48.4 r9939"
   sodipodi:docname="phaseQubit.svg">
  <sodipodi:namedview
     id="base"
     pagecolor="#ffffff"
     bordercolor="#666666"
     borderopacity="1.0"
     inkscape:pageopacity="0.0"
     inkscape:pageshadow="2"
     inkscape:zoom="0.70710678"
     inkscape:cx="217.37134"
     inkscape:cy="903.7687"
     inkscape:document-units="px"
     inkscape:current-layer="layer1"
     showgrid="false"
     inkscape:window-width="1680"
     inkscape:window-height="1026"
     inkscape:window-x="1280"
     inkscape:window-y="24"
     inkscape:window-maximized="1" />
  <defs
     id="defs4">
    <marker
       style="overflow:visible;"
       id="Arrow1Mend"
       refX="0.0"
       refY="0.0"
       orient="auto"
       inkscape:stockid="Arrow1Mend">
      <path
         transform="scale(0.4) rotate(180) translate(10,0)"
         style="fill-rule:evenodd;stroke:#000000;stroke-width:1.0pt;marker-start:none;"
         d="M 0.0,0.0 L 5.0,-5.0 L -12.5,0.0 L 5.0,5.0 L 0.0,0.0 z "
         id="path4451" />
    </marker>
    <marker
       style="overflow:visible"
       id="Arrow1Mstart"
       refX="0.0"
       refY="0.0"
       orient="auto"
       inkscape:stockid="Arrow1Mstart">
      <path
         transform="scale(0.4) translate(10,0)"
         style="fill-rule:evenodd;stroke:#000000;stroke-width:1.0pt;marker-start:none"
         d="M 0.0,0.0 L 5.0,-5.0 L -12.5,0.0 L 5.0,5.0 L 0.0,0.0 z "
         id="path4448" />
    </marker>
  </defs>
  <metadata
     id="metadata7">
    <rdf:RDF>
      <cc:Work
         rdf:about="">
        <dc:format>image/svg+xml</dc:format>
        <dc:type
           rdf:resource="http://purl.org/dc/dcmitype/StillImage" />
        <dc:title />
      </cc:Work>
    </rdf:RDF>
  </metadata>
  <g
     inkscape:label="Layer 1"
     inkscape:groupmode="layer"
     id="layer1">
    <g
       id="g3804">
      <path
         sodipodi:nodetypes="cssssccssssssssssssssssssc"
         inkscape:connector-curvature="0"
         style="fill:#ffffff;fill-opacity:1;stroke:#000000;stroke-width:4;stroke-linecap:round;stroke-linejoin:round;stroke-miterlimit:4;stroke-opacity:1;stroke-dasharray:none;stroke-dashoffset:0"
         d="m -178.88327,6.163402 c 5.43625,21.14563 10.87251,42.6161 16.30875,63.08926 5.43626,20.473138 10.87251,39.913538 16.30877,57.147218 5.43626,17.2337 10.8725,32.22651 16.3088,44.34421 5.43626,12.11776 10.87252,21.3377 16.30878,27.77739 5.43625,6.43976 10.87251,10.09438 16.30877,11.79554 5.43624,1.70107 10.87247,1.46209 16.30873,0.55261 5.43626,-0.90918 10.87251,-2.46238 16.30877,-3.37231 5.43626,-0.90988 10.87257,-1.14748 16.30882,0.16476 5.43626,1.31225 10.87252,4.19546 16.30876,8.82693 5.43626,4.63144 10.87251,11.01598 16.30877,18.5729 5.43625,7.55692 10.8725,16.27211 16.30876,25.00104 5.43623,8.72887 10.87249,17.44198 16.30874,24.81272 5.43631,7.37076 10.87257,13.36284 16.30883,16.91009 5.43625,3.5472 10.87251,4.61743 16.30876,2.76046 5.43625,-1.85703 10.87251,-6.65966 16.30876,-14.0912 5.43625,-7.43152 10.87251,-17.49177 16.30876,-29.20123 5.43626,-11.70947 10.87252,-25.0505 16.30881,-38.70545 5.43626,-13.65499 10.8725,-27.59585 16.30876,-40.60373 5.43626,-13.00795 10.87251,-25.05505 16.30876,-35.42546 5.43626,-10.37041 10.87251,-19.04683 16.30877,-26.0533 5.43626,-7.00651 10.8725,-12.3432 16.30876,-16.76486 5.43625,-4.42174 10.87255,-7.94717 16.30881,-11.80967 5.43625,-3.8626 10.87251,-8.09451 16.30876,-13.99639 5.43625,-5.90187 10.87251,-13.509958 16.30875,-23.758348 5.43626,-10.24833 10.87252,-23.16638 16.30877,-39.00983"
         title="t (t+0.2)**2 - 0.2*cos(2*pi*t)"
         id="path3186" />
      <path
         transform="matrix(0.54926269,0,0,0.73403675,-334.28761,-259.84858)"
         d="m 519.99998,635.2193 c 0,32.34811 -32.93904,58.57143 -73.57142,58.57143 -40.63238,0 -73.57143,-26.22332 -73.57143,-58.57143 0,-32.34811 32.93905,-58.57143 73.57143,-58.57143 40.63238,0 73.57142,26.22332 73.57142,58.57143 z"
         sodipodi:ry="58.57143"
         sodipodi:rx="73.571426"
         sodipodi:cy="635.2193"
         sodipodi:cx="446.42856"
         id="path3336"
         style="fill:none;stroke:#000000;stroke-width:6.29957194;stroke-linecap:round;stroke-linejoin:round;stroke-miterlimit:4;stroke-opacity:1;stroke-dasharray:6.29957194,6.29957194;stroke-dashoffset:0"
         sodipodi:type="arc" />
      <g
         transform="matrix(1.4547965,0,0,1.5012373,-745.72179,-740.86324)"
         id="g4176">
        <path
           style="fill:none;stroke:#ff0000;stroke-width:2.02999735;stroke-linecap:square;stroke-linejoin:miter;stroke-miterlimit:4;stroke-opacity:0.69411765;stroke-dasharray:none"
           d="m 451.53819,628.09811 90.86909,0 0,47.53932"
           id="path4148"
           inkscape:connector-curvature="0" />
        <path
           sodipodi:type="star"
           style="fill:#ff0000;fill-opacity:0.69411765;stroke:none"
           id="path4124-0"
           sodipodi:sides="3"
           sodipodi:cx="328.29959"
           sodipodi:cy="980.64136"
           sodipodi:r1="23.486046"
           sodipodi:r2="11.66059"
           sodipodi:arg1="-5.8463459e-010"
           sodipodi:arg2="1.0471976"
           inkscape:flatsided="false"
           inkscape:rounded="0"
           inkscape:randomized="0"
           d="m 351.78564,980.64136 -17.65575,10.09837 -17.57332,10.24117 0.0824,-20.33954 -0.0824,-20.33951 17.57332,10.24114 z"
           inkscape:transform-center-x="-0.63768453"
           inkscape:transform-center-y="4.9335626"
           transform="matrix(0,0.45168191,-0.33327235,0,869.27257,534.15455)" />
      </g>
      <path
         inkscape:connector-curvature="0"
         id="path4106"
         d="M -88.881411,249.6123 297.38836,283.48078"
         style="fill:none;stroke:#000000;stroke-width:4;stroke-linecap:round;stroke-linejoin:miter;stroke-miterlimit:4;stroke-opacity:1;stroke-dasharray:4,4;stroke-dashoffset:0" />
      <path
         inkscape:connector-curvature="0"
         id="path4108"
         d="M 296.71401,41.021799 -90.596239,163.22773"
         style="fill:none;stroke:#000000;stroke-width:4;stroke-linecap:round;stroke-linejoin:miter;stroke-miterlimit:4;stroke-opacity:1;stroke-dasharray:4,4;stroke-dashoffset:0" />
    </g>
    <g
       transform="translate(280.36458,-251.01219)"
       id="g3030">
      <path
         sodipodi:nodetypes="csccccccccccccccccccccccccccccccccccccccccccccccccccccccc"
         inkscape:connector-curvature="0"
         style="fill:#ffffff;fill-opacity:1;stroke:#000000;stroke-width:4;stroke-linecap:round;stroke-linejoin:round;stroke-miterlimit:4;stroke-opacity:1;stroke-dasharray:none;stroke-dashoffset:0"
         d="m 41.266181,326.79799 c 1.280584,6.8084 2.561168,13.36031 3.841753,19.66182 1.280565,6.30146 2.561168,12.35127 3.841771,18.15513 1.280566,5.80398 2.561169,11.36103 3.841735,16.67829 1.280584,5.31442 2.561168,10.39257 3.841753,15.23339 1.280601,4.83974 2.561171,9.447 3.841771,13.82457 1.28057,4.37592 2.56117,8.52596 3.84174,12.45343 1.2806,3.92846 2.561179,7.63216 3.841749,11.12315 1.2806,3.49204 2.56117,6.76639 3.84177,9.83606 1.28058,3.07187 2.56117,5.93097 3.84175,8.59473 1.28059,2.6627 2.56117,5.12898 3.84176,7.40196 1.28058,2.27536 2.56118,4.35956 3.84175,6.25951 1.2806,1.90411 2.56117,3.62296 3.84175,5.17259 1.28059,1.54943 2.56117,2.92444 3.84177,4.13568 1.28057,1.21136 2.56117,2.2591 3.84174,3.1538 1.2806,0.89513 2.56117,1.63687 3.84177,2.2316 1.280577,0.59988 2.561187,1.05323 3.841747,1.36928 1.28057,0.32758 2.56115,0.4911 3.84174,0.57347 1.2806,0.0542 2.56118,0.004 3.84177,-0.16348 1.28058,-0.16348 2.56118,-0.43643 3.84175,-0.84623 1.2806,-0.38174 2.56117,-0.87277 3.84174,-1.45684 1.2806,-0.57885 2.5612,-1.24898 3.84177,-2.00233 1.28058,-0.75245 2.56117,-1.58231 3.84175,-2.4827 1.2806,-0.90069 2.56121,-1.87151 3.84177,-2.89718 1.28059,-1.02519 2.56117,-2.11701 3.84174,-3.25208 1.2806,-1.13429 2.56118,-2.31339 3.84175,-3.53558 1.2806,-1.2168 2.5612,-2.47174 3.84179,-3.75389 1.28058,-1.28261 2.56117,-2.5863 3.84173,-3.90679 1.28059,-1.32038 2.56117,-2.65177 3.84176,-3.98847 1.2806,-1.33709 2.56115,-2.67904 3.84175,-4.01595 1.28062,-1.33711 2.56117,-2.6626 3.84177,-3.97202 1.28059,-1.3092 2.56115,-2.60267 3.84174,-3.86854 1.28058,-1.26574 2.56118,-2.50443 3.84175,-3.70477 1.2806,-1.20009 2.56119,-2.36269 3.84179,-3.48115 1.28056,-1.11337 2.56117,-2.1825 3.84173,-3.192 1.28061,-1.00979 2.56115,-1.96428 3.84174,-2.8535 1.2806,-0.8896 2.56117,-1.70782 3.84177,-2.45545 1.28058,-0.74687 2.56119,-1.41849 3.84175,-2.00246 1.2806,-0.58908 2.56117,-1.09097 3.84174,-1.50037 1.2806,-0.4364 2.5612,-0.73154 3.84179,-0.94969 1.2806,-0.21827 2.56115,-0.32759 3.84177,-0.32759 1.28058,-0.01 2.56113,0.11211 3.84173,0.27276 1.28057,0.21827 2.56117,0.54577 3.84174,0.98187 1.2806,0.43641 2.56118,1.01404 3.84177,1.71321 1.28058,0.69799 2.56119,1.51693 3.84177,2.47709 1.28058,0.95527 2.56115,2.04608 3.84173,3.2739 1.28059,1.22807 2.56115,2.59162 3.84176,4.10296 1.28062,1.51148 2.5612,3.16469 3.84175,4.95986 1.2806,1.80057 2.56119,3.74847 3.84177,5.8453 1.28057,2.10069 2.56115,4.34856 3.84176,6.75002 1.28056,2.40063 2.56116,4.9597 3.84177,7.67538 1.28056,2.7117 2.56115,5.58543 3.84175,8.61536 1.28057,3.02821 2.56117,6.21915 3.84172,9.56811 1.28058,3.3502 2.5612,6.85918 3.84175,10.53013 1.2806,3.67208 2.5612,7.50406 3.84179,11.49854 1.28056,3.99407 2.56117,8.15065 3.84173,12.46824 1.28059,4.3159 2.56117,8.79768 3.84177,13.43827"
         title="t (t+0.2)**2 - 0.2*cos(2*pi*t)"
         id="path3319" />
      <path
         inkscape:connector-curvature="0"
         style="fill:none;stroke:#0000ff;stroke-width:4;stroke-linecap:round;stroke-linejoin:round;stroke-miterlimit:4;stroke-opacity:0.69411765000000003;stroke-dasharray:none;stroke-dashoffset:0"
         d="m 70.479383,501.00377 c 0.90657,0 1.81319,0 2.71976,0 0.90657,-3e-5 1.8132,-6e-5 2.71976,-2.7e-4 0.9066,-1.8e-4 1.8132,-4.9e-4 2.7198,-0.002 0.90656,-0.001 1.81319,-0.003 2.71976,-0.009 0.9066,-0.003 1.81319,-0.0122 2.71979,-0.0337 0.90657,-0.0213 1.81317,-0.0562 2.71976,-0.13315 0.90657,-0.0769 1.8132,-0.19546 2.71977,-0.42515 0.90659,-0.22982 1.81319,-0.57089 2.71979,-1.14856 0.90657,-0.57767 1.81319,-1.39682 2.71976,-2.61508 0.90657,-1.21829 1.8132,-2.84705 2.71976,-4.98077 0.9066,-2.13371 1.8132,-4.78497 2.719797,-7.83594 0.90656,-3.05096 1.81319,-6.50359 2.71976,-9.94442 0.90657,-3.44089 1.81316,-6.85306 2.71976,-9.65269 0.9066,-2.79966 1.8132,-4.95915 2.71979,-6.04657 0.90657,-1.08746 1.81317,-1.08533 2.71977,0 0.90659,1.08535 1.81316,3.24813 2.71976,6.04657 0.9066,2.79845 1.8132,6.21189 2.71979,9.65269 0.90657,3.44074 1.81317,6.8927 2.71977,9.94442 0.90659,3.0517 1.81316,5.70125 2.71979,7.83594 0.90657,2.13469 1.81313,3.76169 2.71976,4.98077 0.90657,1.21908 1.81317,2.03696 2.71976,2.61508 0.9066,0.57812 1.81317,0.91868 2.7198,1.14856 0.90656,0.22981 1.81313,0.34815 2.71976,0.42515 0.90657,0.0769 1.81316,0.11126 2.71976,0.13315 0.9066,0.0213 1.81317,0.0304 2.71979,0.0337 0.90657,0.003 1.81314,0.009 2.71977,0.009 0.90656,10e-4 1.81316,10e-4 2.71976,0.002 0.9066,2.1e-4 1.81316,2.4e-4 2.71979,2.7e-4 0.90657,0 1.81317,0 2.71976,0"
         title="t exp(-(t**2) )"
         id="path3822-5" />
      <path
         id="path3844-4"
         title="t t * exp(-(t**2) )"
         d="m 67.850663,435.54838 c 1.15764,0 2.31527,2e-5 3.47291,9e-5 1.15764,8e-5 2.31527,1.8e-4 3.47291,5.6e-4 1.15763,4.6e-4 2.31527,10e-4 3.4729,0.004 1.15764,0.002 2.31527,0.006 3.47291,0.0167 1.15764,0.01 2.31527,0.0272 3.47291,0.0661 1.15763,0.0389 2.31527,0.0994 3.4729,0.21967 1.15764,0.12019 2.31528,0.30068 3.47291,0.60799 1.15764,0.3073 2.31527,0.74547 3.47291,1.386 1.15763,0.64056 2.31527,1.49166 3.4729,2.5513 1.157637,1.05964 2.315267,2.33467 3.472907,3.64516 1.15764,1.31048 2.31527,2.65098 3.47291,3.65152 1.15763,1.00054 2.31527,1.63902 3.47291,1.55069 1.15763,-0.0884 2.31526,-0.92747 3.4729,-2.55516 1.15764,-1.62768 2.31527,-4.04527 3.47291,-6.81888 1.15763,-2.77359 2.31527,-5.87667 3.4729,-8.65092 1.15764,-2.77425 2.31528,-5.1897 3.47291,-6.81888 1.15764,-1.62919 2.31527,-2.46538 3.47291,-2.55514 1.15763,-0.0897 2.31527,0.55084 3.4729,1.55068 1.15764,0.99984 2.31527,2.341 3.47291,3.65152 1.15764,1.31051 2.31527,2.58511 3.47291,3.64515 1.15763,1.06003 2.31527,1.91034 3.47291,2.5513 1.15763,0.64094 2.31526,1.07844 3.4729,1.38601 1.15764,0.30755 2.31527,0.48765 3.47291,0.60799 1.15763,0.12032 2.31527,0.1807 3.4729,0.21967 1.15764,0.0391 2.31528,0.0555 3.47291,0.0661 1.15764,0.01 2.31527,0.0143 3.47291,0.0167 1.15763,0.002 2.31527,0.002 3.4729,0.004 1.15764,4.6e-4 2.31528,5.6e-4 3.47291,5.6e-4 1.15764,7e-5 2.31527,1e-4 3.47291,1e-4"
         style="fill:none;stroke:#ff0000;stroke-width:4;stroke-linecap:round;stroke-linejoin:round;stroke-miterlimit:4;stroke-opacity:0.69411765000000003;stroke-dasharray:none;stroke-dashoffset:0"
         inkscape:connector-curvature="0" />
      <rect
         y="291.17932"
         x="18.511953"
         height="243.57143"
         width="263.57144"
         id="rect4110"
         style="fill:none;stroke:#000000;stroke-width:4;stroke-linecap:round;stroke-linejoin:round;stroke-miterlimit:4;stroke-opacity:1;stroke-dasharray:4,4;stroke-dashoffset:0" />
      <g
         id="g3026">
        <path
           style="fill:none;stroke:#ff0000;stroke-width:3;stroke-linecap:square;stroke-linejoin:miter;stroke-miterlimit:4;stroke-opacity:0.69411765000000003;stroke-dasharray:none"
           d="m 155.71429,424.50504 90.11944,0"
           id="path4220"
           inkscape:connector-curvature="0" />
        <path
           sodipodi:type="star"
           style="fill:#ff0000;fill-opacity:0.69411765;stroke:none"
           id="path4124-0-8-8"
           sodipodi:sides="3"
           sodipodi:cx="328.29959"
           sodipodi:cy="980.64136"
           sodipodi:r1="23.486046"
           sodipodi:r2="11.66059"
           sodipodi:arg1="-5.8463459e-010"
           sodipodi:arg2="1.0471976"
           inkscape:flatsided="false"
           inkscape:rounded="0"
           inkscape:randomized="0"
           d="m 351.78564,980.64136 -17.65575,10.09837 -17.57332,10.24117 0.0824,-20.33954 -0.0824,-20.33951 17.57332,10.24114 z"
           inkscape:transform-center-x="-4.9335628"
           inkscape:transform-center-y="-0.63768476"
           transform="matrix(0.67808173,0,0,0.48484345,32.12913,-50.952499)" />
      </g>
    </g>
    <g
       id="g3458">
      <g
         id="g4386"
         transform="translate(439.33095,-657.23676)">
        <path
           sodipodi:nodetypes="cssssssssscccssssssssscscscssssssscssscsssssssc"
           inkscape:connector-curvature="0"
           style="fill:none;stroke:#000000;stroke-width:4;stroke-linecap:square;stroke-linejoin:round;stroke-miterlimit:4;stroke-opacity:1;stroke-dasharray:none;stroke-dashoffset:0"
           d="m 220.48391,700.89037 c 2.12343,12.3264 4.24684,24.31952 6.37027,35.88272 2.12341,11.56326 4.24685,22.69386 6.37026,33.30607 2.12343,10.61226 4.24684,20.70303 6.37028,30.20039 2.12341,9.49736 4.24684,18.39776 6.37025,26.64611 2.12343,8.24834 4.24684,15.84079 6.37028,22.74087 2.12341,6.90007 4.24684,13.10357 6.37025,18.59425 2.12343,5.49051 4.24684,10.264 6.37028,14.3245 2.12341,4.0605 4.24684,7.4038 6.37025,10.05473 2.12343,2.65111 4.24684,4.60564 6.37028,5.90812 2.12341,1.30266 4.24684,1.94943 6.37025,2.00288 2.12343,0.0529 4.24684,-0.48986 6.37028,-1.55115 2.12341,-1.06164 4.24684,-2.64436 6.37025,-4.65709 2.12343,-2.01273 4.24684,-4.45768 6.37028,-7.23377 2.12341,-2.77608 4.24684,-5.88494 6.37025,-9.21949 2.12343,-3.33437 4.24684,-6.89552 6.37028,-10.57379 2.12341,-3.67828 4.24684,-7.47405 6.37025,-11.27949 2.12343,-3.80544 4.24684,-7.62018 6.37028,-11.34206 2.12341,-3.7217 4.24684,-7.34962 6.37025,-10.79053 2.12343,-3.44092 4.24684,-6.69355 6.37028,-9.67689 2.12341,-2.98335 4.24684,-5.69576 6.37025,-8.07192 2.12343,-2.37617 4.24684,-4.4139 6.37028,-6.06557 2.12341,-1.65168 4.24684,-2.91493 6.37025,-3.76165 2.12343,-0.84655 4.24687,-1.27384 6.37028,-1.27438 2.12343,-3.7e-4 4.24684,0.42856 6.37027,1.27438 2.12341,0.84581 4.24685,2.1107 6.37026,3.76165 2.12343,1.65076 4.24684,3.68995 6.37027,6.06557 2.12341,2.37543 4.24685,5.08912 6.37026,8.07192 2.12343,2.98279 4.24684,6.23615 6.37027,9.67689 2.12341,3.44036 4.24685,7.06901 6.37026,10.79053 2.12343,3.7217 4.24684,7.53662 6.37028,11.34206 2.12341,3.80544 4.24684,7.60103 6.37025,11.27949 2.12343,3.67846 4.24684,7.23887 6.37028,10.57379 2.12341,3.33509 4.24684,6.44286 6.37025,9.21949 2.12343,2.77682 4.24684,5.22012 6.37028,7.23377 2.12341,2.01346 4.24684,3.59435 6.37025,4.65709 2.12343,1.06256 4.24684,1.60351 6.37028,1.55115 2.12341,-0.0529 4.24684,-0.7015 6.37025,-2.00288 2.12343,-1.3012 4.24684,-3.25847 6.37028,-5.90812 2.12341,-2.64947 4.24684,-5.99569 6.37025,-10.05473 2.12343,-4.05904 4.24684,-8.83545 6.37028,-14.3245 2.12341,-5.48922 4.24684,-11.69564 6.37025,-18.59425 2.12343,-6.89862 4.24684,-14.49381 6.37028,-22.74087 2.12341,-8.24707 4.24684,-17.15002 6.37025,-26.64611 2.12343,-9.49627 4.24684,-19.58913 6.37028,-30.20039 2.12341,-10.61121 4.24684,-21.7437 6.37025,-33.30607 2.12343,-11.56235 4.24684,-23.55698 6.37028,-35.88272"
           title="t (t+0.5)**2 - 0.2*cos(2*pi*t)"
           id="path4341" />
        <path
           id="path3822-5-2"
           title="t exp(-(t**2) )"
           d="m 246.5633,914.18323 c 0.90657,0 1.81319,0 2.71976,0 0.90657,-3e-5 1.8132,-6e-5 2.71976,-2.7e-4 0.9066,-1.8e-4 1.8132,-4.9e-4 2.7198,-0.002 0.90656,-10e-4 1.81319,-0.003 2.71976,-0.009 0.9066,-0.003 1.81319,-0.0122 2.71979,-0.0337 0.90657,-0.0213 1.81317,-0.0562 2.71976,-0.13315 0.90657,-0.0769 1.8132,-0.19546 2.71977,-0.42515 0.90659,-0.22982 1.81319,-0.57089 2.71979,-1.14856 0.90657,-0.57767 1.81319,-1.39682 2.71976,-2.61508 0.90657,-1.21829 1.8132,-2.84705 2.71976,-4.98077 0.9066,-2.13371 1.8132,-4.78497 2.71979,-7.83594 0.90656,-3.05096 1.81319,-6.50359 2.71976,-9.94442 0.90657,-3.44089 1.81316,-6.85306 2.71976,-9.65269 0.9066,-2.79966 1.8132,-4.95915 2.71979,-6.04657 0.90657,-1.08746 1.81317,-1.08533 2.71977,0 0.90659,1.08535 1.81316,3.24813 2.71976,6.04657 0.9066,2.79845 1.8132,6.21189 2.71979,9.65269 0.90657,3.44074 1.81317,6.8927 2.71977,9.94442 0.90659,3.0517 1.81316,5.70125 2.71979,7.83594 0.90657,2.13469 1.81313,3.76169 2.71976,4.98077 0.90657,1.21908 1.81317,2.03696 2.71976,2.61508 0.9066,0.57812 1.81317,0.91868 2.7198,1.14856 0.90656,0.22981 1.81313,0.34815 2.71976,0.42515 0.90657,0.0769 1.81316,0.11126 2.71976,0.13315 0.9066,0.0213 1.81317,0.0304 2.71979,0.0337 0.90657,0.003 1.81314,0.009 2.71977,0.009 0.90656,10e-4 1.81316,10e-4 2.71976,0.002 0.9066,2.1e-4 1.81316,2.4e-4 2.71979,2.7e-4 0.90657,0 1.81317,0 2.71976,0"
           style="fill:none;stroke:#0000ff;stroke-width:4;stroke-linecap:round;stroke-linejoin:round;stroke-miterlimit:4;stroke-opacity:0.69411765;stroke-dasharray:none;stroke-dashoffset:0"
           inkscape:connector-curvature="0" />
        <path
           id="path3822-5-4"
           title="t exp(-(t**2) )"
           d="m 408.56329,914.18323 c 0.90657,0 1.81319,0 2.71976,0 0.90657,-3e-5 1.8132,-6e-5 2.71976,-2.7e-4 0.9066,-1.8e-4 1.8132,-4.9e-4 2.7198,-0.002 0.90656,-10e-4 1.81319,-0.003 2.71976,-0.009 0.9066,-0.003 1.81319,-0.0122 2.71979,-0.0337 0.90657,-0.0213 1.81317,-0.0562 2.71976,-0.13315 0.90657,-0.0769 1.8132,-0.19546 2.71977,-0.42515 0.90659,-0.22982 1.81319,-0.57089 2.71979,-1.14856 0.90657,-0.57767 1.81319,-1.39682 2.71976,-2.61508 0.90657,-1.21829 1.8132,-2.84705 2.71976,-4.98077 0.9066,-2.13371 1.8132,-4.78497 2.7198,-7.83594 0.90656,-3.05096 1.81319,-6.50359 2.71976,-9.94442 0.90657,-3.44089 1.81316,-6.85306 2.71976,-9.65269 0.9066,-2.79966 1.8132,-4.95915 2.71979,-6.04657 0.90657,-1.08746 1.81317,-1.08533 2.71977,0 0.90659,1.08535 1.81316,3.24813 2.71976,6.04657 0.9066,2.79845 1.8132,6.21189 2.71979,9.65269 0.90657,3.44074 1.81317,6.8927 2.71977,9.94442 0.90659,3.0517 1.81316,5.70125 2.71979,7.83594 0.90657,2.13469 1.81313,3.76169 2.71976,4.98077 0.90657,1.21908 1.81317,2.03696 2.71976,2.61508 0.9066,0.57812 1.81317,0.91868 2.7198,1.14856 0.90656,0.22981 1.81313,0.34815 2.71976,0.42515 0.90657,0.0769 1.81316,0.11126 2.71976,0.13315 0.9066,0.0213 1.81317,0.0304 2.71979,0.0337 0.90657,0.003 1.81314,0.009 2.71977,0.009 0.90656,10e-4 1.81316,10e-4 2.71976,0.002 0.9066,2.1e-4 1.81316,2.4e-4 2.71979,2.7e-4 0.90657,0 1.81317,0 2.71976,0"
           style="fill:none;stroke:#ff0000;stroke-width:4;stroke-linecap:round;stroke-linejoin:round;stroke-miterlimit:4;stroke-opacity:0.69411765;stroke-dasharray:none;stroke-dashoffset:0"
           inkscape:connector-curvature="0" />
      </g>
      <g
         id="g3443">
        <path
           inkscape:connector-curvature="0"
           id="path4437"
           d="m 644.05887,7.59347 0,273.99999 312,0"
           style="fill:none;stroke:#000000;stroke-width:4;stroke-linecap:butt;stroke-linejoin:miter;stroke-miterlimit:4;stroke-opacity:1;stroke-dasharray:none;marker-start:url(#Arrow1Mstart);marker-end:url(#Arrow1Mend)" />
        <g
           ns0:preamble="/home/daniel/.config/inkscape/extensions/tex_preamble.ini"
           ns0:text="Flux"
           word-spacing="normal"
           letter-spacing="normal"
           font-size-adjust="none"
           font-stretch="normal"
           font-weight="normal"
           font-variant="normal"
           font-style="normal"
           stroke-miterlimit="10.433"
           xml:space="preserve"
           transform="matrix(3.7974985,0,0,-3.7974985,-93.49867,3005.9393)"
           id="content"
           style="font-style:normal;font-variant:normal;font-weight:normal;font-stretch:normal;letter-spacing:normal;word-spacing:normal;text-anchor:start;fill:none;stroke:#000000;stroke-width:0.26333126;stroke-linecap:butt;stroke-linejoin:miter;stroke-miterlimit:10.43299961;stroke-opacity:1;stroke-dasharray:none;stroke-dashoffset:0"><path
             id="path3062"
             d="m 229.22,713.88 h -5.46 v -0.31 H 224 c 0.76,0 0.79,-0.11 0.79,-0.47 v -5.2 c 0,-0.36 -0.03,-0.47 -0.79,-0.47 h -0.24 v -0.31 c 0.35,0.04 1.12,0.04 1.51,0.04 0.41,0 1.32,0 1.67,-0.04 v 0.31 h -0.32 c -0.95,0 -0.95,0.13 -0.95,0.48 v 2.44 h 0.86 c 0.95,0 1.05,-0.31 1.05,-1.16 h 0.25 v 2.63 h -0.25 c 0,-0.83 -0.1,-1.16 -1.05,-1.16 h -0.86 v 2.51 c 0,0.33 0.02,0.4 0.49,0.4 h 1.19 c 1.49,0 1.74,-0.55 1.9,-1.92 h 0.25 z"
             inkscape:connector-curvature="0"
             style="fill:#000000;stroke-width:0" /><path
             id="path3064"
             d="m 231.7,714.02 -1.44,-0.11 v -0.31 c 0.7,0 0.78,-0.07 0.78,-0.55 v -5.17 c 0,-0.45 -0.11,-0.45 -0.78,-0.45 v -0.31 c 0.33,0.02 0.86,0.04 1.11,0.04 0.25,0 0.73,-0.02 1.1,-0.04 v 0.31 c -0.66,0 -0.77,0 -0.77,0.45 z"
             inkscape:connector-curvature="0"
             style="fill:#000000;stroke-width:0" /><path
             id="path3066"
             d="m 236.59,707.91 v -0.89 l 1.44,0.1 v 0.31 c -0.7,0 -0.78,0.07 -0.78,0.56 v 3.53 l -1.46,-0.11 v -0.31 c 0.69,0 0.77,-0.07 0.77,-0.56 v -1.77 c 0,-0.86 -0.47,-1.54 -1.2,-1.54 -0.84,0 -0.88,0.47 -0.88,0.99 v 3.3 l -1.46,-0.11 v -0.31 c 0.78,0 0.78,-0.03 0.78,-0.92 v -1.49 c 0,-0.77 0,-1.67 1.51,-1.67 0.56,0 0.99,0.27 1.28,0.89 z"
             inkscape:connector-curvature="0"
             style="fill:#000000;stroke-width:0" /><path
             id="path3068"
             d="m 241.09,709.46 0.06,0.07 0.06,0.08 0.06,0.07 0.06,0.08 0.12,0.15 0.06,0.08 0.06,0.08 0.06,0.07 0.06,0.07 0.06,0.07 0.06,0.07 0.02,0.03 0.03,0.03 0.03,0.04 0.02,0.03 0.03,0.02 0.02,0.03 0.03,0.03 0.02,0.02 c 0.31,0.36 0.72,0.51 1.18,0.52 v 0.31 c -0.26,-0.02 -0.55,-0.03 -0.81,-0.03 -0.3,0 -0.83,0.02 -0.96,0.03 v -0.31 c 0.21,-0.02 0.29,-0.15 0.29,-0.31 0,-0.16 -0.1,-0.29 -0.15,-0.35 l -0.61,-0.77 -0.78,1 c -0.09,0.1 -0.09,0.12 -0.09,0.18 0,0.15 0.15,0.24 0.35,0.25 v 0.31 c -0.26,-0.01 -0.92,-0.03 -1.08,-0.03 -0.21,0 -0.67,0.01 -0.94,0.03 v -0.31 c 0.69,0 0.7,-0.01 1.17,-0.61 l 0.99,-1.28 -0.94,-1.18 c -0.48,-0.58 -1.06,-0.6 -1.27,-0.6 v -0.31 c 0.26,0.03 0.57,0.04 0.82,0.04 0.29,0 0.71,-0.02 0.95,-0.04 v 0.31 c -0.22,0.03 -0.29,0.16 -0.29,0.31 0,0.22 0.29,0.55 0.9,1.26 l 0.75,-0.99 c 0.08,-0.11 0.21,-0.27 0.21,-0.33 0,-0.09 -0.09,-0.24 -0.36,-0.25 v -0.31 c 0.3,0.02 0.86,0.04 1.08,0.04 0.27,0 0.65,-0.01 0.95,-0.04 v 0.31 c -0.53,0 -0.71,0.02 -0.94,0.31 z"
             inkscape:connector-curvature="0"
             style="fill:#000000;stroke-width:0" /></g>        <g
           id="g3190"
           transform="matrix(0,-3.7974985,-3.7974985,0,3312.8541,1052.2063)"
           xml:space="preserve"
           stroke-miterlimit="10.433"
           font-style="normal"
           font-variant="normal"
           font-weight="normal"
           font-stretch="normal"
           font-size-adjust="none"
           letter-spacing="normal"
           word-spacing="normal"
           ns0:text="Energy"
           ns0:preamble="/home/daniel/.config/inkscape/extensions/tex_preamble.ini"
           style="font-style:normal;font-variant:normal;font-weight:normal;font-stretch:normal;letter-spacing:normal;word-spacing:normal;text-anchor:start;fill:none;stroke:#000000;stroke-width:0.26333126;stroke-linecap:butt;stroke-linejoin:miter;stroke-miterlimit:10.43299961;stroke-opacity:1;stroke-dasharray:none;stroke-dashoffset:0"><path
             style="fill:#000000;stroke-width:0"
             inkscape:connector-curvature="0"
             d="m 224.79,707.9 -0.01,-0.03 0,-0.03 0,-0.03 0,-0.03 0,-0.03 0,-0.03 -0.01,-0.02 0,-0.02 -0.01,-0.03 0,-0.02 -0.01,-0.02 -0.01,-0.02 -0.01,-0.01 -0.02,-0.02 -0.01,-0.01 -0.02,-0.02 -0.02,-0.01 -0.02,-0.01 -0.02,-0.01 -0.01,0 -0.01,-0.01 -0.02,0 -0.01,-0.01 -0.02,0 -0.01,-0.01 -0.02,0 -0.02,0 -0.02,-0.01 -0.01,0 -0.03,0 -0.02,-0.01 -0.02,0 -0.02,0 -0.02,0 -0.03,-0.01 -0.02,0 -0.03,0 -0.03,0 -0.03,0 -0.02,0 -0.03,0 -0.04,-0.01 -0.03,0 -0.03,0 -0.04,0 -0.03,0 h -0.24 v -0.31 h 5.74 l 0.42,2.57 h -0.25 c -0.25,-1.53 -0.48,-2.26 -2.19,-2.26 h -1.32 c -0.47,0 -0.49,0.07 -0.49,0.4 v 2.65 h 0.9 c 0.96,0 1.07,-0.32 1.07,-1.16 h 0.25 v 2.63 h -0.25 c 0,-0.85 -0.11,-1.16 -1.07,-1.16 h -0.9 v 2.38 c 0,0.33 0.02,0.4 0.49,0.4 h 1.28 c 1.52,0 1.79,-0.54 1.95,-1.92 h 0.25 l -0.28,2.23 h -5.6 v -0.31 H 224 c 0.76,0 0.79,-0.11 0.79,-0.47 z"
             id="path3192" /><path
             style="fill:#000000;stroke-width:0"
             inkscape:connector-curvature="0"
             d="m 231.31,710.54 v -2.66 c 0,-0.45 -0.11,-0.45 -0.78,-0.45 v -0.31 c 0.35,0.02 0.86,0.04 1.12,0.04 0.26,0 0.78,-0.02 1.12,-0.04 v 0.31 c -0.67,0 -0.78,0 -0.78,0.45 v 1.83 c 0,1.03 0.71,1.59 1.35,1.59 0.62,0 0.73,-0.54 0.73,-1.1 v -2.32 c 0,-0.45 -0.11,-0.45 -0.77,-0.45 v -0.31 c 0.35,0.02 0.85,0.04 1.12,0.04 0.26,0 0.78,-0.02 1.12,-0.04 v 0.31 c -0.52,0 -0.77,0 -0.78,0.3 v 1.9 c 0,0.85 0,1.16 -0.31,1.52 -0.14,0.17 -0.47,0.37 -1.04,0.37 -0.73,0 -1.2,-0.43 -1.48,-1.05 v 1.05 l -1.4,-0.11 v -0.31 c 0.7,0 0.78,-0.07 0.78,-0.56 z"
             id="path3194" /><path
             style="fill:#000000;stroke-width:0"
             inkscape:connector-curvature="0"
             d="m 236.85,709.42 0.01,0.21 c 0.06,1.48 0.9,1.73 1.24,1.73 1.02,0 1.12,-1.34 1.12,-1.73 h -2.36 l -0.01,-0.21 h 2.78 c 0.22,0 0.25,0 0.25,0.21 0,0.98 -0.54,1.95 -1.78,1.95 -1.16,0 -2.07,-1.03 -2.07,-2.27 0,-1.33 1.04,-2.29 2.18,-2.29 1.22,0 1.67,1.1 1.67,1.29 0,0.1 -0.08,0.12 -0.13,0.12 -0.09,0 -0.11,-0.06 -0.13,-0.14 -0.35,-1.03 -1.25,-1.03 -1.35,-1.03 -0.49,0 -0.89,0.3 -1.12,0.67 -0.3,0.48 -0.3,1.13 -0.3,1.49 z"
             id="path3196" /><path
             style="fill:#000000;stroke-width:0"
             inkscape:connector-curvature="0"
             d="m 241.84,710.42 v 1.1 l -1.39,-0.11 v -0.31 c 0.7,0 0.78,-0.07 0.78,-0.56 v -2.66 c 0,-0.45 -0.11,-0.45 -0.78,-0.45 v -0.31 c 0.39,0.02 0.86,0.04 1.14,0.04 0.4,0 0.86,0 1.26,-0.04 v 0.31 h -0.21 c -0.73,0 -0.75,0.11 -0.75,0.47 v 1.53 c 0,0.98 0.41,1.87 1.17,1.87 0.07,0 0.09,0 0.11,-0.01 -0.03,-0.01 -0.23,-0.13 -0.23,-0.39 0,-0.28 0.21,-0.43 0.43,-0.43 0.18,0 0.43,0.12 0.43,0.44 0,0.32 -0.31,0.61 -0.74,0.61 -0.73,0 -1.08,-0.67 -1.22,-1.1 z"
             id="path3198" /><path
             style="fill:#000000;stroke-width:0"
             inkscape:connector-curvature="0"
             d="m 245.13,708.45 0,0 0,0.01 0,0 0,0.01 0,0.01 0,0.01 0,0.01 0,0.01 0.01,0.01 0,0.01 0,0.02 0,0.01 0,0.01 0.01,0.02 0,0.01 0,0.02 0.01,0.02 0,0.01 0.01,0.02 0,0.02 0.01,0.02 0.01,0.01 0,0.02 0.01,0.02 0.01,0.02 0.01,0.02 0.01,0.02 0.02,0.02 0.01,0.02 0.01,0.02 0.02,0.01 0.01,0.02 c 0.39,-0.27 0.8,-0.31 0.99,-0.31 v 0.23 c -0.87,0 -0.87,1 -0.87,1.22 0,0.27 0.01,0.59 0.16,0.84 0.08,0.12 0.31,0.4 0.71,0.4 0.86,0 0.86,-1 0.86,-1.22 0,-0.27 -0.01,-0.59 -0.16,-0.84 -0.08,-0.12 -0.31,-0.4 -0.7,-0.4 h 0 v -0.23 c 0.92,0 1.61,0.69 1.61,1.45 0,0.37 -0.16,0.74 -0.41,0.97 0.36,0.34 0.72,0.39 0.9,0.39 0.01,0 0.07,0 0.1,-0.01 -0.11,-0.04 -0.16,-0.15 -0.16,-0.27 0,-0.17 0.13,-0.29 0.28,-0.29 0.1,0 0.29,0.07 0.29,0.3 0,0.17 -0.12,0.48 -0.5,0.48 -0.2,0 -0.64,-0.05 -1.06,-0.46 -0.42,0.33 -0.83,0.36 -1.05,0.36 -0.93,0 -1.62,-0.69 -1.62,-1.45 0,-0.44 0.22,-0.82 0.47,-1.03 -0.13,-0.15 -0.31,-0.47 -0.31,-0.82 0,-0.31 0.13,-0.69 0.44,-0.89 -0.6,-0.17 -0.91,-0.59 -0.91,-0.99 0,-0.72 0.98,-1.26 2.19,-1.26 l 0.02,0.23 c -1.01,0 -1.7,0.5 -1.7,1.03 0,0.46 0.38,0.82 0.82,0.85 h 0.59 c 0.85,0 1.97,0 1.97,-0.85 0,-0.54 -0.71,-1.03 -1.68,-1.03 h 0 l -0.02,-0.23 c 1.18,0 2.21,0.51 2.21,1.28 0,0.35 -0.14,0.85 -0.64,1.13 -0.53,0.28 -1.11,0.28 -1.71,0.28 -0.25,0 -0.68,0 -0.75,0.01 -0.32,0.04 -0.53,0.35 -0.53,0.67 z"
             id="path3200" /><path
             style="fill:#000000;stroke-width:0"
             inkscape:connector-curvature="0"
             d="m 253.19,710.46 0.01,0.03 0.01,0.03 0.02,0.03 0.01,0.02 0.01,0.03 0.02,0.02 0.01,0.03 0.02,0.02 0.02,0.04 0.04,0.04 0.03,0.04 0.03,0.04 0.03,0.03 0.03,0.03 0.04,0.02 0.03,0.03 0.04,0.02 0.03,0.02 0.03,0.02 0.04,0.02 0.03,0.01 0.03,0.01 0.04,0.01 0.03,0.01 0.03,0.01 0.03,0.01 0.03,0 0.03,0.01 0.02,0 0.03,0 0.03,0.01 0.02,0 0.02,0 0.02,0 0.02,0 0.01,0 v 0.31 c -0.23,-0.02 -0.51,-0.03 -0.74,-0.03 -0.18,0 -0.65,0.02 -0.87,0.03 v -0.31 c 0.31,-0.01 0.47,-0.18 0.47,-0.43 0,-0.1 -0.01,-0.12 -0.06,-0.24 l -1.01,-2.44 -1.1,2.67 c -0.04,0.1 -0.06,0.14 -0.06,0.18 0,0.26 0.37,0.26 0.56,0.26 v 0.31 c -0.26,-0.01 -0.92,-0.03 -1.09,-0.03 -0.27,0 -0.66,0.01 -0.96,0.03 v -0.31 c 0.48,0 0.66,0 0.8,-0.35 l 1.5,-3.63 c -0.05,-0.12 -0.19,-0.45 -0.25,-0.58 -0.22,-0.55 -0.5,-1.23 -1.14,-1.23 -0.05,0 -0.28,0 -0.46,0.18 0.3,0.04 0.38,0.25 0.38,0.41 0,0.26 -0.18,0.42 -0.41,0.42 -0.2,0 -0.42,-0.13 -0.42,-0.43 0,-0.44 0.42,-0.8 0.91,-0.8 0.63,0 1.04,0.57 1.28,1.13 z"
             id="path3202" /></g>      </g>
    </g>
    <g
       style="font-style:normal;font-variant:normal;font-weight:normal;font-stretch:normal;letter-spacing:normal;word-spacing:normal;text-anchor:start;fill:none;stroke:#000000;stroke-width:0.26333126;stroke-linecap:butt;stroke-linejoin:miter;stroke-miterlimit:10.43299961;stroke-opacity:1;stroke-dasharray:none;stroke-dashoffset:0"
       ns0:preamble="/home/daniel/.config/inkscape/extensions/tex_preamble.ini"
       ns0:text="\\textbf{a)}"
       word-spacing="normal"
       letter-spacing="normal"
       font-size-adjust="none"
       font-stretch="normal"
       font-weight="normal"
       font-variant="normal"
       font-style="normal"
       stroke-miterlimit="10.433"
       xml:space="preserve"
       transform="matrix(3.7974985,0,0,-3.7974985,-1070.9627,2703.1241)"
       id="g3349"><path
         id="path3351"
         d="m 227.15,707.89 0,-0.06 0.01,-0.06 0,-0.03 0,-0.03 0,-0.04 0.01,-0.03 0.01,-0.03 0,-0.03 0.02,-0.04 0.01,-0.03 0.01,-0.03 0.02,-0.03 0.02,-0.03 0.02,-0.03 0.03,-0.03 0.03,-0.02 0.03,-0.03 0.02,-0.01 0.02,-0.01 0.02,-0.02 0.02,-0.01 0.02,-0.01 0.02,-0.01 0.02,-0.01 0.03,-0.01 0.02,-0.01 0.03,-0.01 0.03,-0.01 0.03,-0.01 0.03,0 0.03,-0.01 0.03,-0.01 0.03,0 0.04,-0.01 0.04,0 0.03,-0.01 0.04,0 0.04,-0.01 0.05,0 0.04,0 0.04,0 0.05,0 0.05,-0.01 h 0.47 c 0.2,0 0.32,0 0.32,0.24 0,0.23 -0.13,0.23 -0.25,0.23 -0.61,0.01 -0.61,0.14 -0.61,0.37 v 2.13 c 0,0.89 -0.71,1.53 -2.19,1.53 -0.57,0 -1.78,-0.03 -1.78,-0.91 0,-0.44 0.35,-0.62 0.61,-0.62 0.31,0 0.63,0.2 0.63,0.62 0,0.3 -0.19,0.47 -0.22,0.49 0.28,0.06 0.6,0.07 0.72,0.07 0.75,0 1.09,-0.42 1.09,-1.18 v -0.33 -0.31 -0.94 c 0,-0.96 -0.91,-1.09 -1.16,-1.09 -0.51,0 -0.91,0.35 -0.91,0.79 0,1.07 1.58,1.21 2.07,1.24 h 0 v 0.31 c -0.7,-0.03 -3.23,-0.12 -3.23,-1.56 0,-0.96 1.23,-1.13 1.92,-1.13 0.8,0 1.26,0.4 1.48,0.82 z"
         inkscape:connector-curvature="0"
         style="fill:#000000;stroke-width:0" /><path
         id="path3353"
         d="m 232.36,709.61 0,0.23 -0.01,0.23 -0.02,0.22 -0.02,0.22 -0.04,0.22 -0.03,0.21 -0.05,0.2 -0.05,0.2 -0.05,0.2 -0.06,0.19 -0.07,0.19 -0.07,0.18 -0.07,0.18 -0.08,0.17 -0.09,0.16 -0.08,0.16 c -0.66,1.14 -1.56,1.81 -1.75,1.81 -0.08,0 -0.18,-0.03 -0.18,-0.14 0,-0.05 0,-0.07 0.17,-0.23 1.25,-1.27 1.59,-3.03 1.59,-4.59 0,-1.96 -0.51,-3.52 -1.6,-4.62 -0.15,-0.15 -0.16,-0.16 -0.16,-0.21 0,-0.11 0.1,-0.14 0.18,-0.14 0.17,0 0.58,0.37 0.76,0.54 1.55,1.54 1.78,3.36 1.78,4.42 z"
         inkscape:connector-curvature="0"
         style="fill:#000000;stroke-width:0" /></g>    <g
       id="g3553"
       transform="matrix(3.7974985,0,0,-3.7974985,-585.03852,2703.1241)"
       xml:space="preserve"
       stroke-miterlimit="10.433"
       font-style="normal"
       font-variant="normal"
       font-weight="normal"
       font-stretch="normal"
       font-size-adjust="none"
       letter-spacing="normal"
       word-spacing="normal"
       ns0:text="\\textbf{b)}"
       ns0:preamble="/home/daniel/.config/inkscape/extensions/tex_preamble.ini"
       style="font-style:normal;font-variant:normal;font-weight:normal;font-stretch:normal;letter-spacing:normal;word-spacing:normal;text-anchor:start;fill:none;stroke:#000000;stroke-width:0.26333126;stroke-linecap:butt;stroke-linejoin:miter;stroke-miterlimit:10.43299961;stroke-opacity:1;stroke-dasharray:none;stroke-dashoffset:0"><path
         d="m 225.56,711.11 v 2.91 l -1.76,-0.08 v -0.47 c 0.62,0 0.69,0 0.69,-0.38 v -5.97 h 0.46 l 0.49,0.56 c 0.08,-0.08 0.57,-0.61 1.45,-0.61 l -0.09,0.35 c -0.69,0 -1.08,0.54 -1.18,0.69 h 0 v 2.49 c 0.27,0.35 0.75,0.64 1.29,0.64 1.22,0 1.22,-1.2 1.22,-1.9 0,-0.47 0,-1.01 -0.26,-1.4 -0.29,-0.41 -0.75,-0.52 -1.07,-0.52 l 0.09,-0.35 c 1.49,0 2.51,0.89 2.51,2.27 0,1.32 -0.93,2.25 -2.38,2.25 -0.72,0 -1.22,-0.28 -1.46,-0.48 z"
         id="path3555"
         inkscape:connector-curvature="0"
         style="fill:#000000;stroke-width:0" /><path
         d="m 233.16,709.61 0,0.23 -0.02,0.23 -0.01,0.22 -0.03,0.22 -0.03,0.22 -0.04,0.21 -0.04,0.2 -0.05,0.2 -0.06,0.2 -0.06,0.19 -0.06,0.19 -0.07,0.18 -0.08,0.18 -0.08,0.17 -0.08,0.16 -0.09,0.16 c -0.65,1.14 -1.56,1.81 -1.75,1.81 -0.08,0 -0.18,-0.03 -0.18,-0.14 0,-0.05 0,-0.07 0.17,-0.23 1.26,-1.27 1.6,-3.03 1.6,-4.59 0,-1.96 -0.51,-3.52 -1.61,-4.62 -0.15,-0.15 -0.16,-0.16 -0.16,-0.21 0,-0.11 0.1,-0.14 0.18,-0.14 0.17,0 0.59,0.37 0.77,0.54 1.55,1.54 1.78,3.36 1.78,4.42 z"
         id="path3557"
         inkscape:connector-curvature="0"
         style="fill:#000000;stroke-width:0" /></g>    <g
       style="font-style:normal;font-variant:normal;font-weight:normal;font-stretch:normal;letter-spacing:normal;word-spacing:normal;text-anchor:start;fill:none;stroke:#000000;stroke-width:0.26333126;stroke-linecap:butt;stroke-linejoin:miter;stroke-miterlimit:10.43299961;stroke-opacity:1;stroke-dasharray:none;stroke-dashoffset:0"
       ns0:preamble="/home/daniel/.config/inkscape/extensions/tex_preamble.ini"
       ns0:text="\\textbf{c)}"
       word-spacing="normal"
       letter-spacing="normal"
       font-size-adjust="none"
       font-stretch="normal"
       font-weight="normal"
       font-variant="normal"
       font-style="normal"
       stroke-miterlimit="10.433"
       xml:space="preserve"
       transform="matrix(3.7974985,0,0,-3.7974985,-253.65246,2703.1241)"
       id="g3689"><path
         id="path3691"
         d="m 227.01,711.17 -0.01,-0.02 -0.02,-0.01 -0.01,-0.02 -0.02,-0.01 -0.01,-0.02 -0.01,-0.02 -0.01,-0.01 -0.01,-0.02 -0.01,-0.01 -0.01,-0.02 -0.01,-0.02 -0.01,-0.01 0,-0.02 -0.01,-0.01 -0.01,-0.02 0,-0.02 -0.01,-0.01 0,-0.02 -0.01,-0.01 0,-0.02 0,-0.01 0,-0.02 -0.01,-0.01 0,-0.01 0,-0.01 0,-0.02 0,-0.01 0,-0.01 0,-0.01 0,-0.01 0,-0.01 0,-0.01 c 0,-0.44 0.34,-0.62 0.61,-0.62 0.31,0 0.63,0.2 0.63,0.62 0,0.86 -1.16,0.91 -1.73,0.91 -1.78,0 -2.52,-1.14 -2.52,-2.29 0,-1.32 0.93,-2.26 2.47,-2.26 1.61,0 1.91,1.15 1.91,1.22 0,0.14 -0.14,0.14 -0.24,0.14 -0.18,0 -0.19,-0.02 -0.24,-0.15 -0.26,-0.63 -0.74,-0.82 -1.24,-0.82 -1.39,0 -1.39,1.46 -1.39,1.92 0,0.56 0,1.85 1.29,1.85 0.34,0 0.51,-0.03 0.64,-0.06 z"
         inkscape:connector-curvature="0"
         style="fill:#000000;stroke-width:0" /><path
         id="path3693"
         d="m 231.89,709.61 -0.01,0.23 -0.01,0.23 -0.02,0.22 -0.02,0.22 -0.03,0.22 -0.04,0.21 -0.05,0.2 -0.05,0.2 -0.05,0.2 -0.06,0.19 -0.07,0.19 -0.07,0.18 -0.07,0.18 -0.08,0.17 -0.08,0.16 -0.09,0.16 c -0.66,1.14 -1.56,1.81 -1.75,1.81 -0.08,0 -0.18,-0.03 -0.18,-0.14 0,-0.05 0,-0.07 0.17,-0.23 1.25,-1.27 1.59,-3.03 1.59,-4.59 0,-1.96 -0.51,-3.52 -1.6,-4.62 -0.15,-0.15 -0.16,-0.16 -0.16,-0.21 0,-0.11 0.1,-0.14 0.18,-0.14 0.17,0 0.59,0.37 0.77,0.54 1.55,1.54 1.78,3.36 1.78,4.42 z"
         inkscape:connector-curvature="0"
         style="fill:#000000;stroke-width:0" /></g>  </g>
</svg>
