<?xml version="1.0" encoding="UTF-8" standalone="no"?>
<!-- Created with Inkscape (http://www.inkscape.org/) -->

<svg
   xmlns:ns0="http://www.iki.fi/pav/software/textext/"
   xmlns:dc="http://purl.org/dc/elements/1.1/"
   xmlns:cc="http://creativecommons.org/ns#"
   xmlns:rdf="http://www.w3.org/1999/02/22-rdf-syntax-ns#"
   xmlns:svg="http://www.w3.org/2000/svg"
   xmlns="http://www.w3.org/2000/svg"
   xmlns:xlink="http://www.w3.org/1999/xlink"
   xmlns:sodipodi="http://sodipodi.sourceforge.net/DTD/sodipodi-0.dtd"
   xmlns:inkscape="http://www.inkscape.org/namespaces/inkscape"
   width="744.09448819"
   height="1052.3622047"
   id="svg2"
   version="1.1"
   inkscape:version="0.48.4 r9939"
   sodipodi:docname="qubitTypes.svg">
  <sodipodi:namedview
     id="base"
     pagecolor="#ffffff"
     bordercolor="#666666"
     borderopacity="1.0"
     inkscape:pageopacity="0.0"
     inkscape:pageshadow="2"
     inkscape:zoom="1.4"
     inkscape:cx="199.16931"
     inkscape:cy="829.77881"
     inkscape:document-units="px"
     inkscape:current-layer="layer1"
     showgrid="false"
     inkscape:window-width="1855"
     inkscape:window-height="1176"
     inkscape:window-x="65"
     inkscape:window-y="24"
     inkscape:window-maximized="1" />
  <defs
     id="defs4" />
  <metadata
     id="metadata7">
    <rdf:RDF>
      <cc:Work
         rdf:about="">
        <dc:format>image/svg+xml</dc:format>
        <dc:type
           rdf:resource="http://purl.org/dc/dcmitype/StillImage" />
        <dc:title />
      </cc:Work>
    </rdf:RDF>
  </metadata>
  <g
     inkscape:label="Layer 1"
     inkscape:groupmode="layer"
     id="layer1">
    <image
       sodipodi:absref="/usr/local/google/home/danielsank/Desktop/Thesis/Introduction/spinQubit_YacobiWebsite.jpg"
       xlink:href="spinQubit_YacobiWebsite.jpg"
       width="518.40002"
       height="235.70999"
       id="image2993"
       x="64.260696"
       y="28.507158" />
    <image
       sodipodi:absref="/usr/local/google/home/danielsank/Desktop/Thesis/Introduction/paulTrap_BlattWebsite.png"
       xlink:href="paulTrap_BlattWebsite.png"
       width="328.04999"
       height="246.03751"
       id="image3002"
       x="64.260696"
       y="285.91492" />
    <g
       style="font-style:normal;font-variant:normal;font-weight:normal;font-stretch:normal;letter-spacing:normal;word-spacing:normal;text-anchor:start;fill:none;stroke:#000000;stroke-width:0.23939206;stroke-linecap:butt;stroke-linejoin:miter;stroke-miterlimit:10.43299961;stroke-opacity:1;stroke-dasharray:none;stroke-dashoffset:0"
       id="content"
       transform="matrix(4.1772483,0,0,-4.1772483,-917.9802,3013.4852)"
       xml:space="preserve"
       stroke-miterlimit="10.433"
       font-style="normal"
       font-variant="normal"
       font-weight="normal"
       font-stretch="normal"
       font-size-adjust="none"
       letter-spacing="normal"
       word-spacing="normal"
       ns0:text="\\textbf{a)}"
       ns0:preamble="/home/daniel/.config/inkscape/extensions/tex_preamble.ini"><path
         style="fill:#000000;stroke-width:0"
         inkscape:connector-curvature="0"
         d="m 227.15,707.89 0,-0.06 0.01,-0.06 0,-0.03 0,-0.03 0,-0.04 0.01,-0.03 0.01,-0.03 0,-0.03 0.02,-0.04 0.01,-0.03 0.01,-0.03 0.02,-0.03 0.02,-0.03 0.02,-0.03 0.03,-0.03 0.03,-0.02 0.03,-0.03 0.02,-0.01 0.02,-0.01 0.02,-0.02 0.02,-0.01 0.02,-0.01 0.02,-0.01 0.02,-0.01 0.03,-0.01 0.02,-0.01 0.03,-0.01 0.03,-0.01 0.03,-0.01 0.03,0 0.03,-0.01 0.03,-0.01 0.03,0 0.04,-0.01 0.04,0 0.03,-0.01 0.04,0 0.04,-0.01 0.05,0 0.04,0 0.04,0 0.05,0 0.05,-0.01 h 0.47 c 0.2,0 0.32,0 0.32,0.24 0,0.23 -0.13,0.23 -0.25,0.23 -0.61,0.01 -0.61,0.14 -0.61,0.37 v 2.13 c 0,0.89 -0.71,1.53 -2.19,1.53 -0.57,0 -1.78,-0.03 -1.78,-0.91 0,-0.44 0.35,-0.62 0.61,-0.62 0.31,0 0.63,0.2 0.63,0.62 0,0.3 -0.19,0.47 -0.22,0.49 0.28,0.06 0.6,0.07 0.72,0.07 0.75,0 1.09,-0.42 1.09,-1.18 v -0.33 -0.31 -0.94 c 0,-0.96 -0.91,-1.09 -1.16,-1.09 -0.51,0 -0.91,0.35 -0.91,0.79 0,1.07 1.58,1.21 2.07,1.24 h 0 v 0.31 c -0.7,-0.03 -3.23,-0.12 -3.23,-1.56 0,-0.96 1.23,-1.13 1.92,-1.13 0.8,0 1.26,0.4 1.48,0.82 z"
         id="path3000" /><path
         style="fill:#000000;stroke-width:0"
         inkscape:connector-curvature="0"
         d="m 232.36,709.61 0,0.23 -0.01,0.23 -0.02,0.22 -0.02,0.22 -0.04,0.22 -0.03,0.21 -0.05,0.2 -0.05,0.2 -0.05,0.2 -0.06,0.19 -0.07,0.19 -0.07,0.18 -0.07,0.18 -0.08,0.17 -0.09,0.16 -0.08,0.16 c -0.66,1.14 -1.56,1.81 -1.75,1.81 -0.08,0 -0.18,-0.03 -0.18,-0.14 0,-0.05 0,-0.07 0.17,-0.23 1.25,-1.27 1.59,-3.03 1.59,-4.59 0,-1.96 -0.51,-3.52 -1.6,-4.62 -0.15,-0.15 -0.16,-0.16 -0.16,-0.21 0,-0.11 0.1,-0.14 0.18,-0.14 0.17,0 0.58,0.37 0.76,0.54 1.55,1.54 1.78,3.36 1.78,4.42 z"
         id="path3002" /></g>    <g
       style="font-style:normal;font-variant:normal;font-weight:normal;font-stretch:normal;letter-spacing:normal;word-spacing:normal;text-anchor:start;fill:none;stroke:#000000;stroke-width:0.23939206;stroke-linecap:butt;stroke-linejoin:miter;stroke-miterlimit:10.43299961;stroke-opacity:1;stroke-dasharray:none;stroke-dashoffset:0"
       ns0:preamble="/home/daniel/.config/inkscape/extensions/tex_preamble.ini"
       ns0:text="\\textbf{b)}"
       word-spacing="normal"
       letter-spacing="normal"
       font-size-adjust="none"
       font-stretch="normal"
       font-weight="normal"
       font-variant="normal"
       font-style="normal"
       stroke-miterlimit="10.433"
       xml:space="preserve"
       transform="matrix(4.1772483,0,0,-4.1772483,-919.75553,3270.893)"
       id="g3050"><path
         id="path3052"
         d="m 225.56,711.11 v 2.91 l -1.76,-0.08 v -0.47 c 0.62,0 0.69,0 0.69,-0.38 v -5.97 h 0.46 l 0.49,0.56 c 0.08,-0.08 0.57,-0.61 1.45,-0.61 l -0.09,0.35 c -0.69,0 -1.08,0.54 -1.18,0.69 h 0 v 2.49 c 0.27,0.35 0.75,0.64 1.29,0.64 1.22,0 1.22,-1.2 1.22,-1.9 0,-0.47 0,-1.01 -0.26,-1.4 -0.29,-0.41 -0.75,-0.52 -1.07,-0.52 l 0.09,-0.35 c 1.49,0 2.51,0.89 2.51,2.27 0,1.32 -0.93,2.25 -2.38,2.25 -0.72,0 -1.22,-0.28 -1.46,-0.48 z"
         inkscape:connector-curvature="0"
         style="fill:#000000;stroke-width:0" /><path
         id="path3054"
         d="m 233.16,709.61 0,0.23 -0.02,0.23 -0.01,0.22 -0.03,0.22 -0.03,0.22 -0.04,0.21 -0.04,0.2 -0.05,0.2 -0.06,0.2 -0.06,0.19 -0.06,0.19 -0.07,0.18 -0.08,0.18 -0.08,0.17 -0.08,0.16 -0.09,0.16 c -0.65,1.14 -1.56,1.81 -1.75,1.81 -0.08,0 -0.18,-0.03 -0.18,-0.14 0,-0.05 0,-0.07 0.17,-0.23 1.26,-1.27 1.6,-3.03 1.6,-4.59 0,-1.96 -0.51,-3.52 -1.61,-4.62 -0.15,-0.15 -0.16,-0.16 -0.16,-0.21 0,-0.11 0.1,-0.14 0.18,-0.14 0.17,0 0.59,0.37 0.77,0.54 1.55,1.54 1.78,3.36 1.78,4.42 z"
         inkscape:connector-curvature="0"
         style="fill:#000000;stroke-width:0" /></g>  </g>
</svg>
