<?xml version="1.0" encoding="utf-8" standalone="no"?>
<!DOCTYPE svg PUBLIC "-//W3C//DTD SVG 1.1//EN"
  "http://www.w3.org/Graphics/SVG/1.1/DTD/svg11.dtd">
<!-- Created with matplotlib (http://matplotlib.org/) -->
<svg height="869pt" version="1.1" viewBox="0 0 1093 869" width="1093pt" xmlns="http://www.w3.org/2000/svg" xmlns:xlink="http://www.w3.org/1999/xlink">
 <defs>
  <style type="text/css">
*{stroke-linecap:butt;stroke-linejoin:round;}
  </style>
 </defs>
 <g id="figure_1">
  <g id="patch_1">
   <path d="
M0 869.4
L1093.5 869.4
L1093.5 0
L0 0
z
" style="fill:#ffffff;"/>
  </g>
  <g id="axes_1">
   <g id="patch_2">
    <path d="
M136.688 782.46
L984.15 782.46
L984.15 86.94
L136.688 86.94
z
" style="fill:#ffffff;"/>
   </g>
   <g id="line2d_1">
    <path clip-path="url(#p31a478d812)" d="
M132.295 326.282
L142.074 325.83
L151.852 322.299
L156.741 324.923
L161.63 324.8
L166.52 323.902
L171.409 326.2
L176.298 324.271
L181.187 322.114
L186.076 323.421
L195.855 323.644
L200.744 322.203
L205.633 323.131
L210.522 322.756
L215.412 319.197
L220.301 320.891
L225.19 321.117
L230.079 321.567
L234.968 318.687
L239.858 317.898
L244.747 317.422
L249.636 318.218
L254.525 318.829
L259.415 318.083
L264.304 317.548
L269.193 316.039
L274.082 316.599
L278.971 314.565
L283.861 314.372
L288.75 309.942
L293.639 311.662
L298.528 311.194
L303.417 309.254
L308.307 308.617
L313.196 307.524
L318.085 308.719
L322.974 305.163
L327.863 304.968
L332.753 304.346
L337.642 301.739
L342.531 299.625
L347.42 299.016
L352.309 297.609
L357.199 294.921
L362.088 292.387
L366.977 291.826
L371.866 289.309
L381.645 287.267
L386.534 281.327
L391.423 282.752
L396.312 278.25
L401.202 277.936
L406.091 272.98
L410.98 272.698
L415.869 270.398
L420.758 266.459
L425.648 263.037
L430.537 260.846
L435.426 259.067
L445.204 251.432
L450.094 250.03
L454.983 249.19
L459.872 243.989
L464.761 242.446
L469.65 242.087
L474.54 244.317
L479.429 237.408
L484.318 233.629
L489.207 231.631
L494.096 228.509
L498.986 228.337
L503.875 219.403
L508.764 223.348
L513.653 213.256
L518.542 208.798
L523.432 223.759
L528.321 213.744
L533.21 221.755
L538.099 224.996
L542.989 231.433
L547.878 236.724
L552.767 239.07
L557.656 263.056
L562.545 280.371
L567.435 296.894
L572.324 310.271
L577.213 324.337
L582.102 342.601
L586.991 368.54
L591.881 391.801
L596.77 415.827
L601.659 434.588
L606.548 459.015
L611.437 472.474
L616.327 506.591
L621.216 519.78
L626.105 549.016
L630.994 561.149
L635.883 584.838
L640.773 601.084
L645.662 624.031
L650.551 646.389
L655.44 660.11
L660.329 668.548
L665.219 691.013
L670.108 705.492
L674.997 721.01
L679.886 733.649
L684.775 748.902
L694.554 767.284
L699.443 774.121
L704.332 765.975
L709.222 755.315
L714.111 745.408
L719 734.757
L723.889 725.563
L728.778 715.952
L733.668 705.033
L738.557 699.933
L743.446 690.627
L748.335 681.667
L753.224 673.982
L758.114 669.009
L763.003 658.878
L767.892 656.78
L772.781 648.22
L777.67 644.3
L782.56 637.377
L787.449 633.347
L792.338 626.337
L797.227 620.018
L802.116 616.64
L807.006 611.545
L811.895 607.326
L816.784 601.367
L821.673 596.792
L826.562 595.414
L831.452 591.154
L836.341 585.422
L841.23 584.019
L846.119 577.049
L851.009 574.454
L855.898 571.482
L860.787 570.818
L875.455 560.189
L880.344 556.949
L885.233 554.558
L890.122 552.766
L895.011 547.378
L899.901 545.569
L904.79 544.892
L909.679 539.937
L914.568 537.727
L919.457 536.047
L924.347 533.776
L929.236 532.63
L934.125 529.966
L939.014 527.067
L943.903 523.809
L948.793 522.631
L953.682 519.962
L958.571 516.556
L963.46 515.57
L968.349 513.752
L973.239 511.161
L978.128 509.178
L983.017 506.56
L987.906 504.692
L987.906 504.692" style="fill:none;stroke:#0000ff;stroke-linecap:square;stroke-width:3;"/>
   </g>
   <g id="line2d_2">
    <path clip-path="url(#p31a478d812)" d="
M132.295 312.898
L137.184 314.824
L142.074 312.222
L151.852 312.178
L156.741 313.234
L161.63 311.927
L166.52 311.798
L176.298 309.089
L181.187 308.212
L186.076 310.779
L190.966 308.933
L195.855 308.169
L200.744 305.287
L205.633 306.274
L210.522 306.926
L215.412 304.796
L220.301 304.712
L225.19 303.319
L230.079 304.153
L234.968 303.949
L239.858 301.513
L244.747 301.062
L249.636 300.107
L254.525 299.643
L259.415 298.243
L264.304 297.099
L269.193 294.601
L274.082 296.031
L278.971 293.429
L283.861 291.822
L288.75 290.62
L293.639 290.581
L298.528 286.123
L303.417 285.184
L308.307 285.911
L313.196 283.562
L318.085 282.346
L327.863 274.856
L332.753 275.175
L337.642 271.699
L342.531 268.967
L347.42 267.098
L352.309 265.412
L357.199 263.99
L362.088 260.802
L366.977 258.34
L371.866 256.331
L376.755 254.195
L381.645 249.452
L386.534 249.349
L391.423 246.209
L396.312 245.283
L401.202 239.855
L410.98 234.567
L415.869 234.878
L420.758 231.132
L425.648 228.807
L430.537 227.953
L435.426 224.402
L440.315 224.631
L445.204 228.191
L450.094 228.236
L454.983 233.677
L459.872 232.849
L464.761 234.521
L469.65 242.65
L474.54 252.249
L479.429 265.133
L484.318 286.08
L489.207 290.197
L494.096 307.937
L498.986 327.976
L503.875 345.035
L508.764 365.396
L513.653 377.3
L518.542 402.689
L523.432 419.209
L528.321 438.132
L533.21 459.667
L538.099 490.624
L542.989 508.269
L547.878 527.221
L552.767 549.384
L557.656 561.615
L562.545 577.741
L567.435 604.811
L572.324 623.271
L577.213 652.776
L582.102 654.448
L586.991 677.672
L591.881 697.128
L596.77 701.399
L601.659 726.144
L606.548 740.528
L611.437 753.485
L616.327 768.986
L621.216 776.546
L626.105 766.493
L630.994 758.192
L635.883 745.815
L640.773 736.28
L645.662 729.261
L650.551 725.482
L655.44 708.198
L660.329 702.538
L665.219 691.089
L670.108 690.756
L674.997 673.007
L679.886 665.892
L684.775 661.238
L689.665 649.711
L694.554 644.672
L699.443 642.43
L704.332 637.541
L709.222 628.737
L714.111 628.434
L719 620.924
L723.889 616.068
L728.778 609.829
L733.668 609.609
L738.557 602.71
L743.446 594.32
L748.335 592.131
L753.224 589.33
L758.114 585.845
L763.003 582.622
L767.892 579.105
L772.781 574.311
L777.67 572.001
L782.56 565.864
L787.449 565.603
L792.338 563.12
L797.227 558.674
L802.116 554.724
L807.006 553.004
L811.895 550.023
L816.784 546.723
L821.673 545.336
L826.562 540.681
L831.452 540.182
L841.23 533.608
L846.119 532.231
L851.009 532.495
L855.898 526.458
L860.787 524.618
L865.676 521.944
L870.565 525.376
L875.455 521.763
L880.344 517.471
L885.233 515.23
L890.122 513.851
L895.011 514.811
L899.901 512.679
L904.79 507.911
L909.679 505.612
L914.568 505.966
L924.347 503.698
L929.236 500.193
L934.125 498.276
L939.014 495.263
L943.903 493.001
L948.793 490.266
L953.682 492.672
L958.571 488.893
L963.46 489.105
L968.349 487.705
L973.239 484.489
L978.128 483.752
L983.017 482.655
L987.906 479.793
L987.906 479.793" style="fill:none;stroke:#ff0000;stroke-linecap:square;stroke-width:3;"/>
   </g>
   <g id="line2d_3">
    <path clip-path="url(#p31a478d812)" d="
M132.295 304.095
L137.184 305.12
L142.074 303.03
L146.963 305.533
L151.852 302.154
L156.741 301.304
L161.63 301.884
L166.52 300.998
L171.409 303.662
L176.298 299.344
L181.187 299.14
L186.076 298.814
L190.966 296.745
L195.855 295.143
L200.744 298.683
L205.633 294.754
L210.522 293.777
L215.412 292.138
L220.301 292.29
L225.19 289.709
L230.079 289.272
L234.968 286.919
L239.858 285.699
L244.747 285.677
L249.636 286.286
L254.525 282.615
L259.415 282.649
L264.304 281.684
L269.193 278.151
L274.082 276.18
L278.971 278.668
L283.861 273.163
L288.75 273.906
L293.639 270.531
L298.528 270.12
L303.417 268.232
L308.307 263.612
L313.196 262.52
L318.085 260.999
L322.974 258.677
L327.863 256.212
L332.753 255.295
L347.42 250.577
L352.309 245.169
L357.199 249.352
L362.088 244.952
L366.977 244.743
L371.866 246.433
L376.755 241.811
L381.645 240.508
L386.534 241.211
L391.423 240.258
L396.312 240.553
L401.202 242.954
L406.091 250.084
L410.98 248.988
L415.869 256.053
L420.758 264.393
L425.648 273.058
L430.537 281.045
L435.426 289.538
L440.315 305.074
L445.204 317.492
L450.094 340.477
L454.983 355.478
L459.872 375.968
L464.761 395.608
L469.65 408.31
L474.54 434.446
L479.429 459.773
L484.318 482.329
L489.207 496.45
L494.096 521.123
L498.986 535.059
L503.875 557.247
L508.764 573.973
L513.653 583.57
L518.542 599.035
L523.432 623.599
L528.321 649.714
L533.21 664.08
L538.099 682.311
L542.989 699.11
L547.878 707.97
L552.767 719.415
L557.656 728.833
L562.545 741.886
L567.435 753.567
L572.324 754.146
L577.213 753.449
L582.102 755.814
L586.991 746.157
L591.881 740.138
L596.77 733.481
L601.659 716.114
L606.548 718.711
L611.437 696.592
L616.327 685.526
L621.216 677.871
L626.105 679.567
L630.994 670.427
L635.883 656.589
L640.773 658.401
L645.662 657.873
L650.551 643.43
L655.44 639.076
L660.329 639.005
L665.219 624.218
L670.108 624.127
L674.997 619.122
L679.886 608.149
L684.775 610.627
L689.665 599.065
L694.554 602.536
L699.443 593.314
L704.332 589.937
L709.222 586.747
L714.111 585.652
L719 576.456
L723.889 574.927
L728.778 568.19
L733.668 574.44
L738.557 567.434
L743.446 564.109
L748.335 561.967
L753.224 556.412
L758.114 550.108
L763.003 552.598
L767.892 546.526
L772.781 542.906
L777.67 541.105
L782.56 541.713
L792.338 534.376
L797.227 533.014
L802.116 530.643
L807.006 532.565
L811.895 523.507
L821.673 519.828
L826.562 519.518
L831.452 517.288
L836.341 515.888
L841.23 515.808
L846.119 512.304
L851.009 508.512
L855.898 508.866
L860.787 506.861
L865.676 506.996
L870.565 505.494
L875.455 502.4
L880.344 503.797
L885.233 498.647
L890.122 498.191
L895.011 496.805
L899.901 494.987
L904.79 490.103
L909.679 491.684
L914.568 490.138
L919.457 488.848
L924.347 488.618
L929.236 484.853
L934.125 484.206
L939.014 482.885
L943.903 481.3
L948.793 481.328
L953.682 478.566
L958.571 477.16
L963.46 476.262
L968.349 477.148
L973.239 473.854
L978.128 471.636
L983.017 471.892
L987.906 470.804
L987.906 470.804" style="fill:none;stroke:#008000;stroke-linecap:square;stroke-width:3;"/>
   </g>
   <g id="matplotlib.axis_1">
    <g id="xtick_1">
     <g id="line2d_4">
      <path clip-path="url(#p31a478d812)" d="
M267.066 782.46
L267.066 86.94" style="fill:none;stroke:#000000;stroke-dasharray:1.000000,3.000000;stroke-dashoffset:0.0;stroke-width:2;"/>
     </g>
     <g id="line2d_5">
      <defs>
       <path d="
M0 0
L0 -4" id="m86264a5152" style="stroke:#000000;stroke-width:4;"/>
      </defs>
      <g>
       <use style="stroke:#000000;stroke-width:4;" x="267.066346154" xlink:href="#m86264a5152" y="782.46"/>
      </g>
     </g>
     <g id="line2d_6">
      <defs>
       <path d="
M0 0
L0 4" id="m42fcde8d00" style="stroke:#000000;stroke-width:4;"/>
      </defs>
      <g>
       <use style="stroke:#000000;stroke-width:4;" x="267.066346154" xlink:href="#m42fcde8d00" y="86.94"/>
      </g>
     </g>
     <g id="text_1">
      <!-- 6.790 -->
      <defs>
       <path d="
M4.15625 35.2969
Q4.15625 48 6.76562 55.7344
Q9.375 63.4844 14.5156 67.6719
Q19.6719 71.875 27.4844 71.875
Q33.25 71.875 37.5938 69.5469
Q41.9375 67.2344 44.7656 62.8594
Q47.6094 58.5 49.2188 52.2188
Q50.8281 45.9531 50.8281 35.2969
Q50.8281 22.7031 48.2344 14.9688
Q45.6562 7.23438 40.5 3
Q35.3594 -1.21875 27.4844 -1.21875
Q17.1406 -1.21875 11.2344 6.20312
Q4.15625 15.1406 4.15625 35.2969
M13.1875 35.2969
Q13.1875 17.6719 17.3125 11.8281
Q21.4375 6 27.4844 6
Q33.5469 6 37.6719 11.8594
Q41.7969 17.7188 41.7969 35.2969
Q41.7969 52.9844 37.6719 58.7812
Q33.5469 64.5938 27.3906 64.5938
Q21.3438 64.5938 17.7188 59.4688
Q13.1875 52.9375 13.1875 35.2969" id="ArialMT-30"/>
       <path d="
M5.46875 16.5469
L13.9219 17.3281
Q14.9844 11.375 18.0156 8.6875
Q21.0469 6 25.7812 6
Q29.8281 6 32.875 7.85938
Q35.9375 9.71875 37.8906 12.8125
Q39.8438 15.9219 41.1562 21.1875
Q42.4844 26.4688 42.4844 31.9375
Q42.4844 32.5156 42.4375 33.6875
Q39.7969 29.5 35.2344 26.875
Q30.6719 24.2656 25.3438 24.2656
Q16.4531 24.2656 10.2969 30.7031
Q4.15625 37.1562 4.15625 47.7031
Q4.15625 58.5938 10.5781 65.2344
Q17 71.875 26.6562 71.875
Q33.6406 71.875 39.4219 68.1094
Q45.2188 64.3594 48.2188 57.3906
Q51.2188 50.4375 51.2188 37.25
Q51.2188 23.5312 48.2344 15.4062
Q45.2656 7.28125 39.375 3.03125
Q33.5 -1.21875 25.5938 -1.21875
Q17.1875 -1.21875 11.8594 3.4375
Q6.54688 8.10938 5.46875 16.5469
M41.4531 48.1406
Q41.4531 55.7188 37.4219 60.1562
Q33.4062 64.5938 27.7344 64.5938
Q21.875 64.5938 17.5312 59.8125
Q13.1875 55.0312 13.1875 47.4062
Q13.1875 40.5781 17.3125 36.2969
Q21.4375 32.0312 27.4844 32.0312
Q33.5938 32.0312 37.5156 36.2969
Q41.4531 40.5781 41.4531 48.1406" id="ArialMT-39"/>
       <path d="
M9.07812 0
L9.07812 10.0156
L19.0938 10.0156
L19.0938 0
z
" id="ArialMT-2e"/>
       <path d="
M49.75 54.0469
L41.0156 53.375
Q39.8438 58.5469 37.7031 60.8906
Q34.125 64.6562 28.9062 64.6562
Q24.7031 64.6562 21.5312 62.3125
Q17.3906 59.2812 14.9844 53.4688
Q12.5938 47.6562 12.5 36.9219
Q15.6719 41.75 20.2656 44.0938
Q24.8594 46.4375 29.8906 46.4375
Q38.6719 46.4375 44.8438 39.9688
Q51.0312 33.5 51.0312 23.25
Q51.0312 16.5 48.125 10.7188
Q45.2188 4.9375 40.1406 1.85938
Q35.0625 -1.21875 28.6094 -1.21875
Q17.625 -1.21875 10.6875 6.85938
Q3.76562 14.9375 3.76562 33.5
Q3.76562 54.25 11.4219 63.6719
Q18.1094 71.875 29.4375 71.875
Q37.8906 71.875 43.2812 67.1406
Q48.6875 62.4062 49.75 54.0469
M13.875 23.1875
Q13.875 18.6562 15.7969 14.5
Q17.7188 10.3594 21.1875 8.17188
Q24.6562 6 28.4688 6
Q34.0312 6 38.0312 10.4844
Q42.0469 14.9844 42.0469 22.7031
Q42.0469 30.125 38.0781 34.3906
Q34.125 38.6719 28.125 38.6719
Q22.1719 38.6719 18.0156 34.3906
Q13.875 30.125 13.875 23.1875" id="ArialMT-36"/>
       <path d="
M4.73438 62.2031
L4.73438 70.6562
L51.0781 70.6562
L51.0781 63.8125
Q44.2344 56.5469 37.5156 44.4844
Q30.8125 32.4219 27.1562 19.6719
Q24.5156 10.6875 23.7812 0
L14.75 0
Q14.8906 8.45312 18.0625 20.4062
Q21.2344 32.375 27.1719 43.4844
Q33.1094 54.5938 39.7969 62.2031
z
" id="ArialMT-37"/>
      </defs>
      <g transform="translate(238.065721154 803.63875)scale(0.24 -0.24)">
       <use xlink:href="#ArialMT-36"/>
       <use x="55.615234375" xlink:href="#ArialMT-2e"/>
       <use x="83.3984375" xlink:href="#ArialMT-37"/>
       <use x="139.013671875" xlink:href="#ArialMT-39"/>
       <use x="194.62890625" xlink:href="#ArialMT-30"/>
      </g>
     </g>
    </g>
    <g id="xtick_2">
     <g id="line2d_7">
      <path clip-path="url(#p31a478d812)" d="
M430.04 782.46
L430.04 86.94" style="fill:none;stroke:#000000;stroke-dasharray:1.000000,3.000000;stroke-dashoffset:0.0;stroke-width:2;"/>
     </g>
     <g id="line2d_8">
      <g>
       <use style="stroke:#000000;stroke-width:4;" x="430.039903846" xlink:href="#m86264a5152" y="782.46"/>
      </g>
     </g>
     <g id="line2d_9">
      <g>
       <use style="stroke:#000000;stroke-width:4;" x="430.039903846" xlink:href="#m42fcde8d00" y="86.94"/>
      </g>
     </g>
     <g id="text_2">
      <!-- 6.795 -->
      <defs>
       <path d="
M4.15625 18.75
L13.375 19.5312
Q14.4062 12.7969 18.1406 9.39062
Q21.875 6 27.1562 6
Q33.5 6 37.8906 10.7812
Q42.2812 15.5781 42.2812 23.4844
Q42.2812 31 38.0625 35.3438
Q33.8438 39.7031 27 39.7031
Q22.75 39.7031 19.3281 37.7656
Q15.9219 35.8438 13.9688 32.7656
L5.71875 33.8438
L12.6406 70.6094
L48.25 70.6094
L48.25 62.2031
L19.6719 62.2031
L15.8281 42.9688
Q22.2656 47.4688 29.3438 47.4688
Q38.7188 47.4688 45.1562 40.9688
Q51.6094 34.4688 51.6094 24.2656
Q51.6094 14.5469 45.9531 7.46875
Q39.0625 -1.21875 27.1562 -1.21875
Q17.3906 -1.21875 11.2031 4.25
Q5.03125 9.71875 4.15625 18.75" id="ArialMT-35"/>
      </defs>
      <g transform="translate(400.945528846 803.63875)scale(0.24 -0.24)">
       <use xlink:href="#ArialMT-36"/>
       <use x="55.615234375" xlink:href="#ArialMT-2e"/>
       <use x="83.3984375" xlink:href="#ArialMT-37"/>
       <use x="139.013671875" xlink:href="#ArialMT-39"/>
       <use x="194.62890625" xlink:href="#ArialMT-35"/>
      </g>
     </g>
    </g>
    <g id="xtick_3">
     <g id="line2d_10">
      <path clip-path="url(#p31a478d812)" d="
M593.013 782.46
L593.013 86.94" style="fill:none;stroke:#000000;stroke-dasharray:1.000000,3.000000;stroke-dashoffset:0.0;stroke-width:2;"/>
     </g>
     <g id="line2d_11">
      <g>
       <use style="stroke:#000000;stroke-width:4;" x="593.013461538" xlink:href="#m86264a5152" y="782.46"/>
      </g>
     </g>
     <g id="line2d_12">
      <g>
       <use style="stroke:#000000;stroke-width:4;" x="593.013461538" xlink:href="#m42fcde8d00" y="86.94"/>
      </g>
     </g>
     <g id="text_3">
      <!-- 6.800 -->
      <defs>
       <path d="
M17.6719 38.8125
Q12.2031 40.8281 9.5625 44.5312
Q6.9375 48.25 6.9375 53.4219
Q6.9375 61.2344 12.5469 66.5469
Q18.1719 71.875 27.4844 71.875
Q36.8594 71.875 42.5781 66.4219
Q48.2969 60.9844 48.2969 53.1719
Q48.2969 48.1875 45.6719 44.5
Q43.0625 40.8281 37.75 38.8125
Q44.3438 36.6719 47.7812 31.875
Q51.2188 27.0938 51.2188 20.4531
Q51.2188 11.2812 44.7188 5.03125
Q38.2344 -1.21875 27.6406 -1.21875
Q17.0469 -1.21875 10.5469 5.04688
Q4.04688 11.3281 4.04688 20.7031
Q4.04688 27.6875 7.59375 32.3906
Q11.1406 37.1094 17.6719 38.8125
M15.9219 53.7188
Q15.9219 48.6406 19.1875 45.4062
Q22.4688 42.1875 27.6875 42.1875
Q32.7656 42.1875 36.0156 45.375
Q39.2656 48.5781 39.2656 53.2188
Q39.2656 58.0625 35.9062 61.3594
Q32.5625 64.6562 27.5938 64.6562
Q22.5625 64.6562 19.2344 61.4219
Q15.9219 58.2031 15.9219 53.7188
M13.0938 20.6562
Q13.0938 16.8906 14.875 13.375
Q16.6562 9.85938 20.1719 7.92188
Q23.6875 6 27.7344 6
Q34.0312 6 38.125 10.0469
Q42.2344 14.1094 42.2344 20.3594
Q42.2344 26.7031 38.0156 30.8594
Q33.7969 35.0156 27.4375 35.0156
Q21.2344 35.0156 17.1562 30.9062
Q13.0938 26.8125 13.0938 20.6562" id="ArialMT-38"/>
      </defs>
      <g transform="translate(564.012836538 803.63875)scale(0.24 -0.24)">
       <use xlink:href="#ArialMT-36"/>
       <use x="55.615234375" xlink:href="#ArialMT-2e"/>
       <use x="83.3984375" xlink:href="#ArialMT-38"/>
       <use x="139.013671875" xlink:href="#ArialMT-30"/>
       <use x="194.62890625" xlink:href="#ArialMT-30"/>
      </g>
     </g>
    </g>
    <g id="xtick_4">
     <g id="line2d_13">
      <path clip-path="url(#p31a478d812)" d="
M755.987 782.46
L755.987 86.94" style="fill:none;stroke:#000000;stroke-dasharray:1.000000,3.000000;stroke-dashoffset:0.0;stroke-width:2;"/>
     </g>
     <g id="line2d_14">
      <g>
       <use style="stroke:#000000;stroke-width:4;" x="755.987019231" xlink:href="#m86264a5152" y="782.46"/>
      </g>
     </g>
     <g id="line2d_15">
      <g>
       <use style="stroke:#000000;stroke-width:4;" x="755.987019231" xlink:href="#m42fcde8d00" y="86.94"/>
      </g>
     </g>
     <g id="text_4">
      <!-- 6.805 -->
      <g transform="translate(726.892644231 803.63875)scale(0.24 -0.24)">
       <use xlink:href="#ArialMT-36"/>
       <use x="55.615234375" xlink:href="#ArialMT-2e"/>
       <use x="83.3984375" xlink:href="#ArialMT-38"/>
       <use x="139.013671875" xlink:href="#ArialMT-30"/>
       <use x="194.62890625" xlink:href="#ArialMT-35"/>
      </g>
     </g>
    </g>
    <g id="xtick_5">
     <g id="line2d_16">
      <path clip-path="url(#p31a478d812)" d="
M918.961 782.46
L918.961 86.94" style="fill:none;stroke:#000000;stroke-dasharray:1.000000,3.000000;stroke-dashoffset:0.0;stroke-width:2;"/>
     </g>
     <g id="line2d_17">
      <g>
       <use style="stroke:#000000;stroke-width:4;" x="918.960576923" xlink:href="#m86264a5152" y="782.46"/>
      </g>
     </g>
     <g id="line2d_18">
      <g>
       <use style="stroke:#000000;stroke-width:4;" x="918.960576923" xlink:href="#m42fcde8d00" y="86.94"/>
      </g>
     </g>
     <g id="text_5">
      <!-- 6.810 -->
      <defs>
       <path d="
M37.25 0
L28.4688 0
L28.4688 56
Q25.2969 52.9844 20.1406 49.9531
Q14.9844 46.9219 10.8906 45.4062
L10.8906 53.9062
Q18.2656 57.375 23.7812 62.2969
Q29.2969 67.2344 31.5938 71.875
L37.25 71.875
z
" id="ArialMT-31"/>
      </defs>
      <g transform="translate(889.959951923 803.63875)scale(0.24 -0.24)">
       <use xlink:href="#ArialMT-36"/>
       <use x="55.615234375" xlink:href="#ArialMT-2e"/>
       <use x="83.3984375" xlink:href="#ArialMT-38"/>
       <use x="139.013671875" xlink:href="#ArialMT-31"/>
       <use x="194.62890625" xlink:href="#ArialMT-30"/>
      </g>
     </g>
    </g>
    <g id="text_6">
     <!-- Frequency [GHz] -->
     <defs>
      <path d="
M40.4375 19
L49.0781 17.875
Q47.6562 8.9375 41.8125 3.875
Q35.9844 -1.17188 27.4844 -1.17188
Q16.8438 -1.17188 10.375 5.78125
Q3.90625 12.75 3.90625 25.7344
Q3.90625 34.125 6.6875 40.4219
Q9.46875 46.7344 15.1562 49.875
Q20.8438 53.0312 27.5469 53.0312
Q35.9844 53.0312 41.3594 48.75
Q46.7344 44.4844 48.25 36.625
L39.7031 35.2969
Q38.4844 40.5312 35.375 43.1562
Q32.2812 45.7969 27.875 45.7969
Q21.2344 45.7969 17.0781 41.0312
Q12.9375 36.2812 12.9375 25.9844
Q12.9375 15.5312 16.9375 10.7969
Q20.9531 6.0625 27.3906 6.0625
Q32.5625 6.0625 36.0312 9.23438
Q39.5 12.4062 40.4375 19" id="ArialMT-63"/>
      <path d="
M8.01562 0
L8.01562 71.5781
L17.4844 71.5781
L17.4844 42.1875
L54.6875 42.1875
L54.6875 71.5781
L64.1562 71.5781
L64.1562 0
L54.6875 0
L54.6875 33.7344
L17.4844 33.7344
L17.4844 0
z
" id="ArialMT-48"/>
      <path d="
M6.20312 -19.9688
L5.21875 -11.7188
Q8.10938 -12.5 10.25 -12.5
Q13.1875 -12.5 14.9375 -11.5156
Q16.7031 -10.5469 17.8281 -8.79688
Q18.6562 -7.46875 20.5156 -2.25
Q20.75 -1.51562 21.2969 -0.09375
L1.60938 51.8594
L11.0781 51.8594
L21.875 21.8281
Q23.9688 16.1094 25.6406 9.8125
Q27.1562 15.875 29.25 21.625
L40.3281 51.8594
L49.125 51.8594
L29.3906 -0.875
Q26.2188 -9.42188 24.4688 -12.6406
Q22.125 -17 19.0938 -19.0156
Q16.0625 -21.0469 11.8594 -21.0469
Q9.32812 -21.0469 6.20312 -19.9688" id="ArialMT-79"/>
      <path d="
M42.0938 16.7031
L51.1719 15.5781
Q49.0312 7.625 43.2188 3.21875
Q37.4062 -1.17188 28.375 -1.17188
Q17 -1.17188 10.3281 5.82812
Q3.65625 12.8438 3.65625 25.4844
Q3.65625 38.5781 10.3906 45.7969
Q17.1406 53.0312 27.875 53.0312
Q38.2812 53.0312 44.875 45.9531
Q51.4688 38.875 51.4688 26.0312
Q51.4688 25.25 51.4219 23.6875
L12.75 23.6875
Q13.2344 15.1406 17.5781 10.5938
Q21.9219 6.0625 28.4219 6.0625
Q33.25 6.0625 36.6719 8.59375
Q40.0938 11.1406 42.0938 16.7031
M13.2344 30.9062
L42.1875 30.9062
Q41.6094 37.4531 38.875 40.7188
Q34.6719 45.7969 27.9844 45.7969
Q21.9219 45.7969 17.7969 41.75
Q13.6719 37.7031 13.2344 30.9062" id="ArialMT-65"/>
      <path d="
M40.5781 0
L40.5781 7.625
Q34.5156 -1.17188 24.125 -1.17188
Q19.5312 -1.17188 15.5469 0.578125
Q11.5781 2.34375 9.64062 5
Q7.71875 7.67188 6.9375 11.5312
Q6.39062 14.1094 6.39062 19.7344
L6.39062 51.8594
L15.1875 51.8594
L15.1875 23.0938
Q15.1875 16.2188 15.7188 13.8125
Q16.5469 10.3594 19.2344 8.375
Q21.9219 6.39062 25.875 6.39062
Q29.8281 6.39062 33.2969 8.42188
Q36.7656 10.4531 38.2031 13.9375
Q39.6562 17.4375 39.6562 24.0781
L39.6562 51.8594
L48.4375 51.8594
L48.4375 0
z
" id="ArialMT-75"/>
      <path d="
M39.6562 -19.875
L39.6562 5.51562
Q37.5938 2.64062 33.9062 0.734375
Q30.2188 -1.17188 26.0781 -1.17188
Q16.8438 -1.17188 10.1719 6.20312
Q3.51562 13.5781 3.51562 26.4219
Q3.51562 34.2344 6.21875 40.4219
Q8.9375 46.625 14.0781 49.8281
Q19.2344 53.0312 25.3906 53.0312
Q35.0156 53.0312 40.5312 44.9219
L40.5312 51.8594
L48.4375 51.8594
L48.4375 -19.875
z

M12.5469 26.0781
Q12.5469 16.0625 16.75 11.0625
Q20.9531 6.0625 26.8125 6.0625
Q32.4219 6.0625 36.4688 10.8125
Q40.5312 15.5781 40.5312 25.2969
Q40.5312 35.6406 36.25 40.8594
Q31.9844 46.0938 26.2188 46.0938
Q20.5156 46.0938 16.5312 41.2344
Q12.5469 36.375 12.5469 26.0781" id="ArialMT-71"/>
      <path d="
M6.5 0
L6.5 51.8594
L14.4062 51.8594
L14.4062 44
Q17.4375 49.5156 20 51.2656
Q22.5625 53.0312 25.6406 53.0312
Q30.0781 53.0312 34.6719 50.2031
L31.6406 42.0469
Q28.4219 43.9531 25.2031 43.9531
Q22.3125 43.9531 20.0156 42.2188
Q17.7188 40.4844 16.75 37.4062
Q15.2812 32.7188 15.2812 27.1562
L15.2812 0
z
" id="ArialMT-72"/>
      <path d="
M8.20312 0
L8.20312 71.5781
L56.5 71.5781
L56.5 63.1406
L17.6719 63.1406
L17.6719 40.9688
L51.2656 40.9688
L51.2656 32.5156
L17.6719 32.5156
L17.6719 0
z
" id="ArialMT-46"/>
      <path d="
M41.2188 28.0781
L41.2188 36.4688
L71.5312 36.5312
L71.5312 9.96875
Q64.5469 4.39062 57.125 1.57812
Q49.7031 -1.21875 41.8906 -1.21875
Q31.3438 -1.21875 22.7188 3.29688
Q14.1094 7.8125 9.71875 16.3594
Q5.32812 24.9062 5.32812 35.4531
Q5.32812 45.9062 9.6875 54.9531
Q14.0625 64.0156 22.2656 68.4062
Q30.4688 72.7969 41.1562 72.7969
Q48.9219 72.7969 55.1875 70.2812
Q61.4688 67.7812 65.0312 63.2812
Q68.6094 58.7969 70.4531 51.5625
L61.9219 49.2188
Q60.2969 54.6875 57.9062 57.8125
Q55.5156 60.9375 51.0625 62.8125
Q46.625 64.7031 41.2188 64.7031
Q34.7188 64.7031 29.9844 62.7188
Q25.25 60.75 22.3438 57.5156
Q19.4375 54.2969 17.8281 50.4375
Q15.0938 43.7969 15.0938 36.0312
Q15.0938 26.4688 18.3906 20.0156
Q21.6875 13.5781 27.9844 10.4531
Q34.2812 7.32812 41.3594 7.32812
Q47.5156 7.32812 53.375 9.6875
Q59.2344 12.0625 62.25 14.75
L62.25 28.0781
z
" id="ArialMT-47"/>
      <path d="
M6.59375 0
L6.59375 51.8594
L14.5 51.8594
L14.5 44.4844
Q20.2188 53.0312 31 53.0312
Q35.6875 53.0312 39.625 51.3438
Q43.5625 49.6562 45.5156 46.9219
Q47.4688 44.1875 48.25 40.4375
Q48.7344 37.9844 48.7344 31.8906
L48.7344 0
L39.9375 0
L39.9375 31.5469
Q39.9375 36.9219 38.9062 39.5781
Q37.8906 42.2344 35.2812 43.8125
Q32.6719 45.4062 29.1562 45.4062
Q23.5312 45.4062 19.4531 41.8438
Q15.375 38.2812 15.375 28.3281
L15.375 0
z
" id="ArialMT-6e"/>
      <path d="
M6.78125 -19.875
L6.78125 71.5781
L26.1719 71.5781
L26.1719 64.3125
L15.5781 64.3125
L15.5781 -12.5938
L26.1719 -12.5938
L26.1719 -19.875
z
" id="ArialMT-5b"/>
      <path d="
M1.95312 0
L1.95312 7.125
L34.9688 45.0156
Q29.3438 44.7344 25.0469 44.7344
L3.90625 44.7344
L3.90625 51.8594
L46.2969 51.8594
L46.2969 46.0469
L18.2188 13.1406
L12.7969 7.125
Q18.7031 7.5625 23.875 7.5625
L47.8594 7.5625
L47.8594 0
z
" id="ArialMT-7a"/>
      <path d="
M21.2969 -19.875
L1.90625 -19.875
L1.90625 -12.5938
L12.5 -12.5938
L12.5 64.3125
L1.90625 64.3125
L1.90625 71.5781
L21.2969 71.5781
z
" id="ArialMT-5d"/>
      <path id="ArialMT-20"/>
     </defs>
     <g transform="translate(455.519375 833.791875)scale(0.28 -0.28)">
      <use xlink:href="#ArialMT-46"/>
      <use x="61.083984375" xlink:href="#ArialMT-72"/>
      <use x="94.384765625" xlink:href="#ArialMT-65"/>
      <use x="150.0" xlink:href="#ArialMT-71"/>
      <use x="205.615234375" xlink:href="#ArialMT-75"/>
      <use x="261.23046875" xlink:href="#ArialMT-65"/>
      <use x="316.845703125" xlink:href="#ArialMT-6e"/>
      <use x="372.4609375" xlink:href="#ArialMT-63"/>
      <use x="422.4609375" xlink:href="#ArialMT-79"/>
      <use x="472.4609375" xlink:href="#ArialMT-20"/>
      <use x="500.244140625" xlink:href="#ArialMT-5b"/>
      <use x="528.02734375" xlink:href="#ArialMT-47"/>
      <use x="605.810546875" xlink:href="#ArialMT-48"/>
      <use x="678.02734375" xlink:href="#ArialMT-7a"/>
      <use x="728.02734375" xlink:href="#ArialMT-5d"/>
     </g>
    </g>
   </g>
   <g id="matplotlib.axis_2">
    <g id="ytick_1">
     <g id="line2d_19">
      <path clip-path="url(#p31a478d812)" d="
M136.688 782.46
L984.15 782.46" style="fill:none;stroke:#000000;stroke-dasharray:1.000000,3.000000;stroke-dashoffset:0.0;stroke-width:2;"/>
     </g>
     <g id="line2d_20">
      <defs>
       <path d="
M0 0
L4 0" id="ma6767afb4f" style="stroke:#000000;stroke-width:4;"/>
      </defs>
      <g>
       <use style="stroke:#000000;stroke-width:4;" x="136.6875" xlink:href="#ma6767afb4f" y="782.46"/>
      </g>
     </g>
     <g id="line2d_21">
      <defs>
       <path d="
M0 0
L-4 0" id="m6dfcbcda23" style="stroke:#000000;stroke-width:4;"/>
      </defs>
      <g>
       <use style="stroke:#000000;stroke-width:4;" x="984.15" xlink:href="#m6dfcbcda23" y="782.46"/>
      </g>
     </g>
    </g>
    <g id="ytick_2">
     <g id="line2d_22">
      <path clip-path="url(#p31a478d812)" d="
M136.688 643.356
L984.15 643.356" style="fill:none;stroke:#000000;stroke-dasharray:1.000000,3.000000;stroke-dashoffset:0.0;stroke-width:2;"/>
     </g>
     <g id="line2d_23">
      <g>
       <use style="stroke:#000000;stroke-width:4;" x="136.6875" xlink:href="#ma6767afb4f" y="643.356"/>
      </g>
     </g>
     <g id="line2d_24">
      <g>
       <use style="stroke:#000000;stroke-width:4;" x="984.15" xlink:href="#m6dfcbcda23" y="643.356"/>
      </g>
     </g>
     <g id="text_7">
      <!-- 0 -->
      <g transform="translate(121.48625 649.560375)scale(0.24 -0.24)">
       <use xlink:href="#ArialMT-30"/>
      </g>
     </g>
    </g>
    <g id="ytick_3">
     <g id="line2d_25">
      <path clip-path="url(#p31a478d812)" d="
M136.688 504.252
L984.15 504.252" style="fill:none;stroke:#000000;stroke-dasharray:1.000000,3.000000;stroke-dashoffset:0.0;stroke-width:2;"/>
     </g>
     <g id="line2d_26">
      <g>
       <use style="stroke:#000000;stroke-width:4;" x="136.6875" xlink:href="#ma6767afb4f" y="504.252"/>
      </g>
     </g>
     <g id="line2d_27">
      <g>
       <use style="stroke:#000000;stroke-width:4;" x="984.15" xlink:href="#m6dfcbcda23" y="504.252"/>
      </g>
     </g>
     <g id="text_8">
      <!-- 5 -->
      <g transform="translate(121.29875 510.456375)scale(0.24 -0.24)">
       <use xlink:href="#ArialMT-35"/>
      </g>
     </g>
    </g>
    <g id="ytick_4">
     <g id="line2d_28">
      <path clip-path="url(#p31a478d812)" d="
M136.688 365.148
L984.15 365.148" style="fill:none;stroke:#000000;stroke-dasharray:1.000000,3.000000;stroke-dashoffset:0.0;stroke-width:2;"/>
     </g>
     <g id="line2d_29">
      <g>
       <use style="stroke:#000000;stroke-width:4;" x="136.6875" xlink:href="#ma6767afb4f" y="365.148"/>
      </g>
     </g>
     <g id="line2d_30">
      <g>
       <use style="stroke:#000000;stroke-width:4;" x="984.15" xlink:href="#m6dfcbcda23" y="365.148"/>
      </g>
     </g>
     <g id="text_9">
      <!-- 10 -->
      <g transform="translate(109.75625 371.352375)scale(0.24 -0.24)">
       <use xlink:href="#ArialMT-31"/>
       <use x="55.615234375" xlink:href="#ArialMT-30"/>
      </g>
     </g>
    </g>
    <g id="ytick_5">
     <g id="line2d_31">
      <path clip-path="url(#p31a478d812)" d="
M136.688 226.044
L984.15 226.044" style="fill:none;stroke:#000000;stroke-dasharray:1.000000,3.000000;stroke-dashoffset:0.0;stroke-width:2;"/>
     </g>
     <g id="line2d_32">
      <g>
       <use style="stroke:#000000;stroke-width:4;" x="136.6875" xlink:href="#ma6767afb4f" y="226.044"/>
      </g>
     </g>
     <g id="line2d_33">
      <g>
       <use style="stroke:#000000;stroke-width:4;" x="984.15" xlink:href="#m6dfcbcda23" y="226.044"/>
      </g>
     </g>
     <g id="text_10">
      <!-- 15 -->
      <g transform="translate(109.56875 232.248375)scale(0.24 -0.24)">
       <use xlink:href="#ArialMT-31"/>
       <use x="55.615234375" xlink:href="#ArialMT-35"/>
      </g>
     </g>
    </g>
    <g id="ytick_6">
     <g id="line2d_34">
      <path clip-path="url(#p31a478d812)" d="
M136.688 86.94
L984.15 86.94" style="fill:none;stroke:#000000;stroke-dasharray:1.000000,3.000000;stroke-dashoffset:0.0;stroke-width:2;"/>
     </g>
     <g id="line2d_35">
      <g>
       <use style="stroke:#000000;stroke-width:4;" x="136.6875" xlink:href="#ma6767afb4f" y="86.94"/>
      </g>
     </g>
     <g id="line2d_36">
      <g>
       <use style="stroke:#000000;stroke-width:4;" x="984.15" xlink:href="#m6dfcbcda23" y="86.94"/>
      </g>
     </g>
     <g id="text_11">
      <!-- 20 -->
      <defs>
       <path d="
M50.3438 8.45312
L50.3438 0
L3.03125 0
Q2.9375 3.17188 4.04688 6.10938
Q5.85938 10.9375 9.82812 15.625
Q13.8125 20.3125 21.3438 26.4688
Q33.0156 36.0312 37.1094 41.625
Q41.2188 47.2188 41.2188 52.2031
Q41.2188 57.4219 37.4688 61
Q33.7344 64.5938 27.7344 64.5938
Q21.3906 64.5938 17.5781 60.7812
Q13.7656 56.9844 13.7188 50.25
L4.6875 51.1719
Q5.60938 61.2812 11.6562 66.5781
Q17.7188 71.875 27.9375 71.875
Q38.2344 71.875 44.2344 66.1562
Q50.25 60.4531 50.25 52
Q50.25 47.7031 48.4844 43.5469
Q46.7344 39.4062 42.6562 34.8125
Q38.5781 30.2188 29.1094 22.2188
Q21.1875 15.5781 18.9375 13.2031
Q16.7031 10.8438 15.2344 8.45312
z
" id="ArialMT-32"/>
      </defs>
      <g transform="translate(107.8475 93.144375)scale(0.24 -0.24)">
       <use xlink:href="#ArialMT-32"/>
       <use x="55.615234375" xlink:href="#ArialMT-30"/>
      </g>
     </g>
    </g>
    <g id="text_12">
     <!-- $\left| S_{21} \right|$ [au] -->
     <defs>
      <path d="
M4.98438 0
L4.98438 2.6875
Q4.98438 2.9375 5.17188 3.21875
L20.7031 20.4062
Q24.2188 24.2188 26.4062 26.7969
Q28.6094 29.3906 30.75 32.7656
Q32.9062 36.1406 34.1562 39.625
Q35.4062 43.1094 35.4062 47.0156
Q35.4062 51.125 33.8906 54.8594
Q32.375 58.5938 29.375 60.8438
Q26.375 63.0938 22.125 63.0938
Q17.7812 63.0938 14.3125 60.4688
Q10.8438 57.8594 9.42188 53.7188
Q9.8125 53.8125 10.5 53.8125
Q12.75 53.8125 14.3281 52.2969
Q15.9219 50.7812 15.9219 48.3906
Q15.9219 46.0938 14.3281 44.5
Q12.75 42.9219 10.5 42.9219
Q8.15625 42.9219 6.5625 44.5469
Q4.98438 46.1875 4.98438 48.3906
Q4.98438 52.1562 6.39062 55.4375
Q7.8125 58.7344 10.4688 61.2969
Q13.1406 63.875 16.4844 65.2344
Q19.8281 66.6094 23.5781 66.6094
Q29.2969 66.6094 34.2188 64.1875
Q39.1562 61.7656 42.0312 57.3438
Q44.9219 52.9375 44.9219 47.0156
Q44.9219 42.6719 43.0156 38.7656
Q41.1094 34.8594 38.125 31.6562
Q35.1562 28.4688 30.5156 24.4062
Q25.875 20.3594 24.4219 19
L13.0938 8.10938
L22.7031 8.10938
Q29.7812 8.10938 34.5469 8.21875
Q39.3125 8.34375 39.5938 8.59375
Q40.7656 9.85938 42 17.8281
L44.9219 17.8281
L42.0938 0
z
" id="Cmr10-32"/>
      <path d="
M11.9219 -23.1875
L11.9219 73.1875
Q11.9219 73.9688 12.5 74.4844
Q13.0938 75 13.9219 75
Q14.6562 75 15.2812 74.4844
Q15.9219 73.9688 15.9219 73.1875
L15.9219 -23.1875
Q15.9219 -23.9688 15.2812 -24.4844
Q14.6562 -25 13.9219 -25
Q13.0938 -25 12.5 -24.4844
Q11.9219 -23.9688 11.9219 -23.1875" id="Cmsy10-6a"/>
      <path d="
M6.10938 -2.20312
Q5.8125 -2.20312 5.5625 -1.85938
Q5.32812 -1.51562 5.32812 -1.21875
L11.0781 22.125
Q11.2812 22.7031 11.9219 22.7031
L13.0938 22.7031
Q13.4844 22.7031 13.7031 22.4062
Q13.9219 22.125 13.9219 21.6875
Q13.0938 18.2656 13.0938 15.5781
Q13.0938 8.34375 18.0625 4.82812
Q23.0469 1.3125 30.6094 1.3125
Q33.8906 1.3125 37.0625 2.92188
Q40.2344 4.54688 42.5938 7.125
Q44.9688 9.71875 46.375 12.9062
Q47.7969 16.1094 47.7969 19.3906
Q47.7969 22.9062 45.9375 25.6562
Q44.0938 28.4219 40.8281 29.2031
L28.6094 32.4219
Q23.6875 33.7344 20.75 37.7188
Q17.8281 41.7031 17.8281 46.6875
Q17.8281 52.6875 21.3906 58.25
Q24.9531 63.8125 30.6875 67.1562
Q36.4219 70.5156 42.3906 70.5156
Q46.9688 70.5156 50.7969 68.8281
Q54.6406 67.1406 56.6875 63.4844
L62.4062 70.2188
Q62.9844 70.5156 63.0938 70.5156
L63.7188 70.5156
Q64.1094 70.5156 64.3438 70.1719
Q64.5938 69.8281 64.5938 69.4844
L58.7969 46.2969
Q58.6406 45.6094 58.0156 45.6094
L56.7812 45.6094
Q55.9062 45.6094 55.9062 46.6875
Q56.3906 49.8594 56.3906 52.2031
Q56.3906 56.8438 54.7969 60.2812
Q53.2188 63.7188 50.0156 65.5
Q46.8281 67.2812 42.0938 67.2812
Q38.0938 67.2812 34.125 64.9844
Q30.1719 62.7031 27.7344 58.8906
Q25.2969 55.0781 25.2969 50.9844
Q25.2969 47.75 27.1719 45.2656
Q29.0469 42.7812 32.1719 41.8906
L44.3906 38.7188
Q47.7031 37.8438 50.1719 35.625
Q52.6406 33.4062 53.9062 30.3438
Q55.1719 27.2969 55.1719 23.6875
Q55.1719 18.9531 53.1719 14.3281
Q51.1719 9.71875 47.5781 5.90625
Q44 2.09375 39.4531 -0.046875
Q34.9062 -2.20312 30.1719 -2.20312
Q18.2656 -2.20312 13.0938 4.78125
L7.51562 -1.90625
Q6.9375 -2.20312 6.78125 -2.20312
z
" id="Cmmi10-53"/>
      <path d="
M9.28125 0
L9.28125 3.51562
Q21.7812 3.51562 21.7812 6.6875
L21.7812 59.1875
Q16.6094 56.6875 8.6875 56.6875
L8.6875 60.2031
Q20.9531 60.2031 27.2031 66.6094
L28.6094 66.6094
Q28.9531 66.6094 29.2656 66.3281
Q29.5938 66.0625 29.5938 65.7188
L29.5938 6.6875
Q29.5938 3.51562 42.0938 3.51562
L42.0938 0
z
" id="Cmr10-31"/>
      <path d="
M40.4375 6.39062
Q35.5469 2.25 31.0312 0.53125
Q26.5156 -1.17188 21.3438 -1.17188
Q12.7969 -1.17188 8.20312 3
Q3.60938 7.17188 3.60938 13.6719
Q3.60938 17.4844 5.34375 20.625
Q7.07812 23.7812 9.89062 25.6875
Q12.7031 27.5938 16.2188 28.5625
Q18.7969 29.25 24.0312 29.8906
Q34.6719 31.1562 39.7031 32.9062
Q39.75 34.7188 39.75 35.2031
Q39.75 40.5781 37.25 42.7812
Q33.8906 45.75 27.25 45.75
Q21.0469 45.75 18.0938 43.5781
Q15.1406 41.4062 13.7188 35.8906
L5.125 37.0625
Q6.29688 42.5781 8.98438 45.9688
Q11.6719 49.3594 16.75 51.1875
Q21.8281 53.0312 28.5156 53.0312
Q35.1562 53.0312 39.2969 51.4688
Q43.4531 49.9062 45.4062 47.5312
Q47.3594 45.1719 48.1406 41.5469
Q48.5781 39.3125 48.5781 33.4531
L48.5781 21.7344
Q48.5781 9.46875 49.1406 6.21875
Q49.7031 2.98438 51.375 0
L42.1875 0
Q40.8281 2.73438 40.4375 6.39062
M39.7031 26.0312
Q34.9062 24.0781 25.3438 22.7031
Q19.9219 21.9219 17.6719 20.9375
Q15.4375 19.9688 14.2031 18.0938
Q12.9844 16.2188 12.9844 13.9219
Q12.9844 10.4062 15.6406 8.0625
Q18.3125 5.71875 23.4375 5.71875
Q28.5156 5.71875 32.4688 7.9375
Q36.4219 10.1562 38.2812 14.0156
Q39.7031 17 39.7031 22.7969
z
" id="ArialMT-61"/>
     </defs>
     <g transform="translate(95.5675 487.9)rotate(-90.0)scale(0.28 -0.28)">
      <use transform="translate(0.0 -1.0875)scale(0.96025)" xlink:href="#Cmsy10-6a"/>
      <use transform="translate(26.5824432373 0.421875)" xlink:href="#Cmmi10-53"/>
      <use transform="translate(87.8617401123 -25.0875)scale(0.7)" xlink:href="#Cmr10-32"/>
      <use transform="translate(122.861740112 -25.0875)scale(0.7)" xlink:href="#Cmr10-31"/>
      <use transform="translate(157.861740112 -1.0875)scale(0.96025)" xlink:href="#Cmsy10-6a"/>
      <use transform="translate(184.44418335 0.421875)" xlink:href="#ArialMT-20"/>
      <use transform="translate(212.227386475 0.421875)" xlink:href="#ArialMT-5b"/>
      <use transform="translate(240.0105896 0.421875)" xlink:href="#ArialMT-61"/>
      <use transform="translate(295.625823975 0.421875)" xlink:href="#ArialMT-75"/>
      <use transform="translate(351.24105835 0.421875)" xlink:href="#ArialMT-5d"/>
     </g>
    </g>
   </g>
   <g id="patch_3">
    <path d="
M136.688 86.94
L984.15 86.94" style="fill:none;stroke:#000000;"/>
   </g>
   <g id="patch_4">
    <path d="
M984.15 782.46
L984.15 86.94" style="fill:none;stroke:#000000;"/>
   </g>
   <g id="patch_5">
    <path d="
M136.688 782.46
L984.15 782.46" style="fill:none;stroke:#000000;"/>
   </g>
   <g id="patch_6">
    <path d="
M136.688 782.46
L136.688 86.94" style="fill:none;stroke:#000000;"/>
   </g>
   <g id="legend_1">
    <g id="patch_7">
     <path d="
M886.77 193.68
L975.15 193.68
L975.15 95.94
L886.77 95.94
L886.77 193.68
z
" style="fill:#ffffff;stroke:#000000;"/>
    </g>
    <g id="line2d_37">
     <path d="
M899.37 114.48
L924.57 114.48" style="fill:none;stroke:#0000ff;stroke-linecap:square;stroke-width:3;"/>
    </g>
    <g id="line2d_38"/>
    <g id="text_13">
     <!-- $\left| 0 \rangle \right.$ -->
     <defs>
      <path d="
M25 -2.20312
Q12.75 -2.20312 8.32812 7.875
Q3.90625 17.9688 3.90625 31.8906
Q3.90625 40.5781 5.48438 48.2344
Q7.07812 55.9062 11.7812 61.25
Q16.5 66.6094 25 66.6094
Q31.5938 66.6094 35.7812 63.375
Q39.9844 60.1562 42.1875 55.0469
Q44.3906 49.9531 45.1875 44.1094
Q46 38.2812 46 31.8906
Q46 23.2969 44.4062 15.7969
Q42.8281 8.29688 38.1875 3.04688
Q33.5469 -2.20312 25 -2.20312
M25 0.390625
Q30.5625 0.390625 33.2969 6.09375
Q36.0312 11.8125 36.6719 18.75
Q37.3125 25.6875 37.3125 33.5
Q37.3125 41.0156 36.6719 47.3594
Q36.0312 53.7188 33.3125 58.8594
Q30.6094 64.0156 25 64.0156
Q19.3438 64.0156 16.6094 58.8281
Q13.875 53.6562 13.2344 47.3281
Q12.5938 41.0156 12.5938 33.5
Q12.5938 27.9375 12.8594 23
Q13.1406 18.0625 14.3125 12.8125
Q15.4844 7.5625 18.0938 3.96875
Q20.7031 0.390625 25 0.390625" id="Cmr10-30"/>
      <path d="
M7.8125 -114.016
Q7.8125 -113.484 8.01562 -113.281
L33.1094 -56
L8.01562 1.3125
Q7.8125 1.51562 7.8125 2
Q7.8125 2.73438 8.39062 3.35938
Q8.98438 4 9.8125 4
Q10.9844 4 11.7188 2.78125
L37.2031 -55.3281
Q37.3125 -55.5156 37.3125 -56
Q37.3125 -56.5 37.2031 -56.7812
L11.7188 -114.797
Q10.9375 -116.016 9.8125 -116.016
Q8.98438 -116.016 8.39062 -115.375
Q7.8125 -114.75 7.8125 -114.016" id="Cmex10-ae"/>
     </defs>
     <g transform="translate(944.37 120.78)scale(0.18 -0.18)">
      <use transform="translate(0.0 7.984375)scale(1.20015625)" xlink:href="#Cmsy10-6a"/>
      <use transform="translate(33.2269744873 0.658854166667)" xlink:href="#Cmr10-30"/>
      <use transform="translate(83.2269744873 94.0)" xlink:href="#Cmex10-ae"/>
     </g>
    </g>
    <g id="line2d_39">
     <path d="
M899.37 145.26
L924.57 145.26" style="fill:none;stroke:#ff0000;stroke-linecap:square;stroke-width:3;"/>
    </g>
    <g id="line2d_40"/>
    <g id="text_14">
     <!-- $\left| 1 \rangle \right.$ -->
     <g transform="translate(944.37 151.56)scale(0.18 -0.18)">
      <use transform="translate(0.0 7.984375)scale(1.20015625)" xlink:href="#Cmsy10-6a"/>
      <use transform="translate(33.2269744873 0.658854166667)" xlink:href="#Cmr10-31"/>
      <use transform="translate(83.2269744873 94.0)" xlink:href="#Cmex10-ae"/>
     </g>
    </g>
    <g id="line2d_41">
     <path d="
M899.37 176.04
L924.57 176.04" style="fill:none;stroke:#008000;stroke-linecap:square;stroke-width:3;"/>
    </g>
    <g id="line2d_42"/>
    <g id="text_15">
     <!-- $\left| 2 \rangle \right.$ -->
     <g transform="translate(944.37 182.34)scale(0.18 -0.18)">
      <use transform="translate(0.0 7.984375)scale(1.20015625)" xlink:href="#Cmsy10-6a"/>
      <use transform="translate(33.2269744873 0.658854166667)" xlink:href="#Cmr10-32"/>
      <use transform="translate(83.2269744873 94.0)" xlink:href="#Cmex10-ae"/>
     </g>
    </g>
   </g>
  </g>
 </g>
 <defs>
  <clipPath id="p31a478d812">
   <rect height="695.52" width="847.4625" x="136.6875" y="86.94"/>
  </clipPath>
 </defs>
</svg>
