<?xml version="1.0" encoding="utf-8" standalone="no"?>
<!DOCTYPE svg PUBLIC "-//W3C//DTD SVG 1.1//EN"
  "http://www.w3.org/Graphics/SVG/1.1/DTD/svg11.dtd">
<!-- Created with matplotlib (http://matplotlib.org/) -->
<svg height="869pt" version="1.1" viewBox="0 0 1093 869" width="1093pt" xmlns="http://www.w3.org/2000/svg" xmlns:xlink="http://www.w3.org/1999/xlink">
 <defs>
  <style type="text/css">
*{stroke-linecap:butt;stroke-linejoin:round;}
  </style>
 </defs>
 <g id="figure_1">
  <g id="patch_1">
   <path d="
M0 869.4
L1093.5 869.4
L1093.5 0
L0 0
z
" style="fill:#ffffff;"/>
  </g>
  <g id="axes_1">
   <g id="patch_2">
    <path d="
M136.688 782.46
L984.15 782.46
L984.15 86.94
L136.688 86.94
z
" style="fill:#ffffff;"/>
   </g>
   <g id="line2d_1">
    <defs>
     <path d="
M-6 6
L6 6
L6 -6
L-6 -6
z
" id="m73594d56c2"/>
    </defs>
    <g clip-path="url(#p31a478d812)">
     <use style="fill:#0000ff;" x="156.865178571" xlink:href="#m73594d56c2" y="150.366379905"/>
     <use style="fill:#0000ff;" x="197.220535714" xlink:href="#m73594d56c2" y="150.530647205"/>
     <use style="fill:#0000ff;" x="237.575892857" xlink:href="#m73594d56c2" y="154.66317936"/>
     <use style="fill:#0000ff;" x="277.93125" xlink:href="#m73594d56c2" y="152.83666672"/>
     <use style="fill:#0000ff;" x="318.286607143" xlink:href="#m73594d56c2" y="156.765397301"/>
     <use style="fill:#0000ff;" x="358.641964286" xlink:href="#m73594d56c2" y="156.660329478"/>
     <use style="fill:#0000ff;" x="398.997321429" xlink:href="#m73594d56c2" y="158.358428299"/>
     <use style="fill:#0000ff;" x="439.352678571" xlink:href="#m73594d56c2" y="162.601346644"/>
     <use style="fill:#0000ff;" x="479.708035714" xlink:href="#m73594d56c2" y="169.949568307"/>
     <use style="fill:#0000ff;" x="520.063392857" xlink:href="#m73594d56c2" y="178.351954789"/>
     <use style="fill:#0000ff;" x="560.41875" xlink:href="#m73594d56c2" y="198.178658934"/>
     <use style="fill:#0000ff;" x="600.774107143" xlink:href="#m73594d56c2" y="222.913241968"/>
     <use style="fill:#0000ff;" x="641.129464286" xlink:href="#m73594d56c2" y="265.720486254"/>
     <use style="fill:#0000ff;" x="681.484821429" xlink:href="#m73594d56c2" y="335.941925483"/>
     <use style="fill:#0000ff;" x="721.840178571" xlink:href="#m73594d56c2" y="454.147421902"/>
     <use style="fill:#0000ff;" x="762.195535714" xlink:href="#m73594d56c2" y="555.649503815"/>
     <use style="fill:#0000ff;" x="802.550892857" xlink:href="#m73594d56c2" y="499.974514819"/>
     <use style="fill:#0000ff;" x="842.90625" xlink:href="#m73594d56c2" y="643.14520588"/>
     <use style="fill:#0000ff;" x="883.261607143" xlink:href="#m73594d56c2" y="693.463305729"/>
     <use style="fill:#0000ff;" x="923.616964286" xlink:href="#m73594d56c2" y="523.072184857"/>
    </g>
   </g>
   <g id="line2d_2">
    <defs>
     <path d="
M0 6
C1.59122 6 3.11748 5.3678 4.24264 4.24264
C5.3678 3.11748 6 1.59122 6 0
C6 -1.59122 5.3678 -3.11748 4.24264 -4.24264
C3.11748 -5.3678 1.59122 -6 0 -6
C-1.59122 -6 -3.11748 -5.3678 -4.24264 -4.24264
C-5.3678 -3.11748 -6 -1.59122 -6 0
C-6 1.59122 -5.3678 3.11748 -4.24264 4.24264
C-3.11748 5.3678 -1.59122 6 0 6
z
" id="m1e476a3337"/>
    </defs>
    <g clip-path="url(#p31a478d812)">
     <use style="fill:#008000;" x="358.641964286" xlink:href="#m1e476a3337" y="150.900851823"/>
     <use style="fill:#008000;" x="398.997321429" xlink:href="#m1e476a3337" y="151.259261632"/>
     <use style="fill:#008000;" x="439.352678571" xlink:href="#m1e476a3337" y="152.069205232"/>
     <use style="fill:#008000;" x="479.708035714" xlink:href="#m1e476a3337" y="152.352393448"/>
     <use style="fill:#008000;" x="520.063392857" xlink:href="#m1e476a3337" y="154.000778706"/>
     <use style="fill:#008000;" x="560.41875" xlink:href="#m1e476a3337" y="155.797373677"/>
     <use style="fill:#008000;" x="600.774107143" xlink:href="#m1e476a3337" y="159.162573182"/>
     <use style="fill:#008000;" x="641.129464286" xlink:href="#m1e476a3337" y="163.455987311"/>
     <use style="fill:#008000;" x="681.484821429" xlink:href="#m1e476a3337" y="174.584078208"/>
     <use style="fill:#008000;" x="721.840178571" xlink:href="#m1e476a3337" y="186.167256989"/>
     <use style="fill:#008000;" x="762.195535714" xlink:href="#m1e476a3337" y="209.761264819"/>
     <use style="fill:#008000;" x="802.550892857" xlink:href="#m1e476a3337" y="235.010947594"/>
     <use style="fill:#008000;" x="842.90625" xlink:href="#m1e476a3337" y="283.450364231"/>
     <use style="fill:#008000;" x="883.261607143" xlink:href="#m1e476a3337" y="364.125149906"/>
     <use style="fill:#008000;" x="923.616964286" xlink:href="#m1e476a3337" y="482.992075314"/>
     <use style="fill:#008000;" x="963.972321429" xlink:href="#m1e476a3337" y="712.342010264"/>
    </g>
   </g>
   <g id="line2d_3">
    <path clip-path="url(#p31a478d812)" d="
M358.642 150.901
L398.997 151.259
L439.353 152.069
L479.708 152.352
L520.063 154.001
L560.419 155.797
L600.774 159.163
L641.129 163.456
L681.485 174.584
L721.84 186.167
L762.196 209.761
L802.551 235.011
L842.906 283.45
L883.262 364.125
L923.617 482.992
L963.972 712.342" style="fill:none;stroke:#008000;stroke-linecap:square;stroke-width:3;"/>
   </g>
   <g id="line2d_4">
    <path clip-path="url(#p31a478d812)" d="
M176.38 150.901
L216.735 151.259
L257.091 152.069
L297.446 152.352
L337.801 154.001
L378.157 155.797
L418.512 159.163
L458.868 163.456
L499.223 174.584
L539.578 186.167
L579.934 209.761
L620.289 235.011
L660.644 283.45
L701 364.125
L741.355 482.992
L781.71 712.342" style="fill:none;stroke:#ff0000;stroke-linecap:square;stroke-width:3;"/>
   </g>
   <g id="matplotlib.axis_1">
    <g id="xtick_1">
     <g id="line2d_5">
      <path clip-path="url(#p31a478d812)" d="
M156.865 782.46
L156.865 86.94" style="fill:none;stroke:#000000;stroke-dasharray:1.000000,3.000000;stroke-dashoffset:0.0;stroke-width:2;"/>
     </g>
     <g id="line2d_6">
      <defs>
       <path d="
M0 0
L0 -2" id="md9ea1fbb54" style="stroke:#000000;stroke-width:2;"/>
      </defs>
      <g>
       <use style="stroke:#000000;stroke-width:2;" x="156.865178571" xlink:href="#md9ea1fbb54" y="782.46"/>
      </g>
     </g>
     <g id="line2d_7">
      <defs>
       <path d="
M0 0
L0 2" id="m549a26aa6c" style="stroke:#000000;stroke-width:2;"/>
      </defs>
      <g>
       <use style="stroke:#000000;stroke-width:2;" x="156.865178571" xlink:href="#m549a26aa6c" y="86.94"/>
      </g>
     </g>
     <g id="text_1">
      <!-- −70 -->
      <defs>
       <path d="
M4.15625 35.2969
Q4.15625 48 6.76562 55.7344
Q9.375 63.4844 14.5156 67.6719
Q19.6719 71.875 27.4844 71.875
Q33.25 71.875 37.5938 69.5469
Q41.9375 67.2344 44.7656 62.8594
Q47.6094 58.5 49.2188 52.2188
Q50.8281 45.9531 50.8281 35.2969
Q50.8281 22.7031 48.2344 14.9688
Q45.6562 7.23438 40.5 3
Q35.3594 -1.21875 27.4844 -1.21875
Q17.1406 -1.21875 11.2344 6.20312
Q4.15625 15.1406 4.15625 35.2969
M13.1875 35.2969
Q13.1875 17.6719 17.3125 11.8281
Q21.4375 6 27.4844 6
Q33.5469 6 37.6719 11.8594
Q41.7969 17.7188 41.7969 35.2969
Q41.7969 52.9844 37.6719 58.7812
Q33.5469 64.5938 27.3906 64.5938
Q21.3438 64.5938 17.7188 59.4688
Q13.1875 52.9375 13.1875 35.2969" id="ArialMT-30"/>
       <path d="
M52.8281 31.2031
L5.5625 31.2031
L5.5625 39.4062
L52.8281 39.4062
z
" id="ArialMT-2212"/>
       <path d="
M4.73438 62.2031
L4.73438 70.6562
L51.0781 70.6562
L51.0781 63.8125
Q44.2344 56.5469 37.5156 44.4844
Q30.8125 32.4219 27.1562 19.6719
Q24.5156 10.6875 23.7812 0
L14.75 0
Q14.8906 8.45312 18.0625 20.4062
Q21.2344 32.375 27.1719 43.4844
Q33.1094 54.5938 39.7969 62.2031
z
" id="ArialMT-37"/>
      </defs>
      <g transform="translate(140.937053571 800.775625)scale(0.2 -0.2)">
       <use xlink:href="#ArialMT-2212"/>
       <use x="58.3984375" xlink:href="#ArialMT-37"/>
       <use x="114.013671875" xlink:href="#ArialMT-30"/>
      </g>
     </g>
    </g>
    <g id="xtick_2">
     <g id="line2d_8">
      <path clip-path="url(#p31a478d812)" d="
M358.642 782.46
L358.642 86.94" style="fill:none;stroke:#000000;stroke-dasharray:1.000000,3.000000;stroke-dashoffset:0.0;stroke-width:2;"/>
     </g>
     <g id="line2d_9">
      <g>
       <use style="stroke:#000000;stroke-width:2;" x="358.641964286" xlink:href="#md9ea1fbb54" y="782.46"/>
      </g>
     </g>
     <g id="line2d_10">
      <g>
       <use style="stroke:#000000;stroke-width:2;" x="358.641964286" xlink:href="#m549a26aa6c" y="86.94"/>
      </g>
     </g>
     <g id="text_2">
      <!-- −60 -->
      <defs>
       <path d="
M49.75 54.0469
L41.0156 53.375
Q39.8438 58.5469 37.7031 60.8906
Q34.125 64.6562 28.9062 64.6562
Q24.7031 64.6562 21.5312 62.3125
Q17.3906 59.2812 14.9844 53.4688
Q12.5938 47.6562 12.5 36.9219
Q15.6719 41.75 20.2656 44.0938
Q24.8594 46.4375 29.8906 46.4375
Q38.6719 46.4375 44.8438 39.9688
Q51.0312 33.5 51.0312 23.25
Q51.0312 16.5 48.125 10.7188
Q45.2188 4.9375 40.1406 1.85938
Q35.0625 -1.21875 28.6094 -1.21875
Q17.625 -1.21875 10.6875 6.85938
Q3.76562 14.9375 3.76562 33.5
Q3.76562 54.25 11.4219 63.6719
Q18.1094 71.875 29.4375 71.875
Q37.8906 71.875 43.2812 67.1406
Q48.6875 62.4062 49.75 54.0469
M13.875 23.1875
Q13.875 18.6562 15.7969 14.5
Q17.7188 10.3594 21.1875 8.17188
Q24.6562 6 28.4688 6
Q34.0312 6 38.0312 10.4844
Q42.0469 14.9844 42.0469 22.7031
Q42.0469 30.125 38.0781 34.3906
Q34.125 38.6719 28.125 38.6719
Q22.1719 38.6719 18.0156 34.3906
Q13.875 30.125 13.875 23.1875" id="ArialMT-36"/>
      </defs>
      <g transform="translate(342.713839286 800.775625)scale(0.2 -0.2)">
       <use xlink:href="#ArialMT-2212"/>
       <use x="58.3984375" xlink:href="#ArialMT-36"/>
       <use x="114.013671875" xlink:href="#ArialMT-30"/>
      </g>
     </g>
    </g>
    <g id="xtick_3">
     <g id="line2d_11">
      <path clip-path="url(#p31a478d812)" d="
M560.419 782.46
L560.419 86.94" style="fill:none;stroke:#000000;stroke-dasharray:1.000000,3.000000;stroke-dashoffset:0.0;stroke-width:2;"/>
     </g>
     <g id="line2d_12">
      <g>
       <use style="stroke:#000000;stroke-width:2;" x="560.41875" xlink:href="#md9ea1fbb54" y="782.46"/>
      </g>
     </g>
     <g id="line2d_13">
      <g>
       <use style="stroke:#000000;stroke-width:2;" x="560.41875" xlink:href="#m549a26aa6c" y="86.94"/>
      </g>
     </g>
     <g id="text_3">
      <!-- −50 -->
      <defs>
       <path d="
M4.15625 18.75
L13.375 19.5312
Q14.4062 12.7969 18.1406 9.39062
Q21.875 6 27.1562 6
Q33.5 6 37.8906 10.7812
Q42.2812 15.5781 42.2812 23.4844
Q42.2812 31 38.0625 35.3438
Q33.8438 39.7031 27 39.7031
Q22.75 39.7031 19.3281 37.7656
Q15.9219 35.8438 13.9688 32.7656
L5.71875 33.8438
L12.6406 70.6094
L48.25 70.6094
L48.25 62.2031
L19.6719 62.2031
L15.8281 42.9688
Q22.2656 47.4688 29.3438 47.4688
Q38.7188 47.4688 45.1562 40.9688
Q51.6094 34.4688 51.6094 24.2656
Q51.6094 14.5469 45.9531 7.46875
Q39.0625 -1.21875 27.1562 -1.21875
Q17.3906 -1.21875 11.2031 4.25
Q5.03125 9.71875 4.15625 18.75" id="ArialMT-35"/>
      </defs>
      <g transform="translate(544.490625 800.775625)scale(0.2 -0.2)">
       <use xlink:href="#ArialMT-2212"/>
       <use x="58.3984375" xlink:href="#ArialMT-35"/>
       <use x="114.013671875" xlink:href="#ArialMT-30"/>
      </g>
     </g>
    </g>
    <g id="xtick_4">
     <g id="line2d_14">
      <path clip-path="url(#p31a478d812)" d="
M762.196 782.46
L762.196 86.94" style="fill:none;stroke:#000000;stroke-dasharray:1.000000,3.000000;stroke-dashoffset:0.0;stroke-width:2;"/>
     </g>
     <g id="line2d_15">
      <g>
       <use style="stroke:#000000;stroke-width:2;" x="762.195535714" xlink:href="#md9ea1fbb54" y="782.46"/>
      </g>
     </g>
     <g id="line2d_16">
      <g>
       <use style="stroke:#000000;stroke-width:2;" x="762.195535714" xlink:href="#m549a26aa6c" y="86.94"/>
      </g>
     </g>
     <g id="text_4">
      <!-- −40 -->
      <defs>
       <path d="
M32.3281 0
L32.3281 17.1406
L1.26562 17.1406
L1.26562 25.2031
L33.9375 71.5781
L41.1094 71.5781
L41.1094 25.2031
L50.7812 25.2031
L50.7812 17.1406
L41.1094 17.1406
L41.1094 0
z

M32.3281 25.2031
L32.3281 57.4688
L9.90625 25.2031
z
" id="ArialMT-34"/>
      </defs>
      <g transform="translate(746.267410714 800.775625)scale(0.2 -0.2)">
       <use xlink:href="#ArialMT-2212"/>
       <use x="58.3984375" xlink:href="#ArialMT-34"/>
       <use x="114.013671875" xlink:href="#ArialMT-30"/>
      </g>
     </g>
    </g>
    <g id="xtick_5">
     <g id="line2d_17">
      <path clip-path="url(#p31a478d812)" d="
M963.972 782.46
L963.972 86.94" style="fill:none;stroke:#000000;stroke-dasharray:1.000000,3.000000;stroke-dashoffset:0.0;stroke-width:2;"/>
     </g>
     <g id="line2d_18">
      <g>
       <use style="stroke:#000000;stroke-width:2;" x="963.972321429" xlink:href="#md9ea1fbb54" y="782.46"/>
      </g>
     </g>
     <g id="line2d_19">
      <g>
       <use style="stroke:#000000;stroke-width:2;" x="963.972321429" xlink:href="#m549a26aa6c" y="86.94"/>
      </g>
     </g>
     <g id="text_5">
      <!-- −30 -->
      <defs>
       <path d="
M4.20312 18.8906
L12.9844 20.0625
Q14.5 12.5938 18.1406 9.29688
Q21.7812 6 27 6
Q33.2031 6 37.4688 10.2969
Q41.75 14.5938 41.75 20.9531
Q41.75 27 37.7969 30.9219
Q33.8438 34.8594 27.7344 34.8594
Q25.25 34.8594 21.5312 33.8906
L22.5156 41.6094
Q23.3906 41.5 23.9219 41.5
Q29.5469 41.5 34.0312 44.4219
Q38.5312 47.3594 38.5312 53.4688
Q38.5312 58.2969 35.25 61.4688
Q31.9844 64.6562 26.8125 64.6562
Q21.6875 64.6562 18.2656 61.4219
Q14.8438 58.2031 13.875 51.7656
L5.07812 53.3281
Q6.6875 62.1562 12.3906 67.0156
Q18.1094 71.875 26.6094 71.875
Q32.4688 71.875 37.3906 69.3594
Q42.3281 66.8438 44.9375 62.5
Q47.5625 58.1562 47.5625 53.2656
Q47.5625 48.6406 45.0625 44.8281
Q42.5781 41.0156 37.7031 38.7656
Q44.0469 37.3125 47.5625 32.6875
Q51.0781 28.0781 51.0781 21.1406
Q51.0781 11.7656 44.2344 5.25
Q37.4062 -1.26562 26.9531 -1.26562
Q17.5312 -1.26562 11.2969 4.34375
Q5.07812 9.96875 4.20312 18.8906" id="ArialMT-33"/>
      </defs>
      <g transform="translate(948.044196429 800.775625)scale(0.2 -0.2)">
       <use xlink:href="#ArialMT-2212"/>
       <use x="58.3984375" xlink:href="#ArialMT-33"/>
       <use x="114.013671875" xlink:href="#ArialMT-30"/>
      </g>
     </g>
    </g>
    <g id="text_6">
     <!-- Measurement pulse power [dBm] -->
     <defs>
      <path d="
M40.4375 6.39062
Q35.5469 2.25 31.0312 0.53125
Q26.5156 -1.17188 21.3438 -1.17188
Q12.7969 -1.17188 8.20312 3
Q3.60938 7.17188 3.60938 13.6719
Q3.60938 17.4844 5.34375 20.625
Q7.07812 23.7812 9.89062 25.6875
Q12.7031 27.5938 16.2188 28.5625
Q18.7969 29.25 24.0312 29.8906
Q34.6719 31.1562 39.7031 32.9062
Q39.75 34.7188 39.75 35.2031
Q39.75 40.5781 37.25 42.7812
Q33.8906 45.75 27.25 45.75
Q21.0469 45.75 18.0938 43.5781
Q15.1406 41.4062 13.7188 35.8906
L5.125 37.0625
Q6.29688 42.5781 8.98438 45.9688
Q11.6719 49.3594 16.75 51.1875
Q21.8281 53.0312 28.5156 53.0312
Q35.1562 53.0312 39.2969 51.4688
Q43.4531 49.9062 45.4062 47.5312
Q47.3594 45.1719 48.1406 41.5469
Q48.5781 39.3125 48.5781 33.4531
L48.5781 21.7344
Q48.5781 9.46875 49.1406 6.21875
Q49.7031 2.98438 51.375 0
L42.1875 0
Q40.8281 2.73438 40.4375 6.39062
M39.7031 26.0312
Q34.9062 24.0781 25.3438 22.7031
Q19.9219 21.9219 17.6719 20.9375
Q15.4375 19.9688 14.2031 18.0938
Q12.9844 16.2188 12.9844 13.9219
Q12.9844 10.4062 15.6406 8.0625
Q18.3125 5.71875 23.4375 5.71875
Q28.5156 5.71875 32.4688 7.9375
Q36.4219 10.1562 38.2812 14.0156
Q39.7031 17 39.7031 22.7969
z
" id="ArialMT-61"/>
      <path d="
M7.32812 0
L7.32812 71.5781
L34.1875 71.5781
Q42.3906 71.5781 47.3438 69.4062
Q52.2969 67.2344 55.0938 62.7188
Q57.9062 58.2031 57.9062 53.2656
Q57.9062 48.6875 55.4219 44.625
Q52.9375 40.5781 47.9062 38.0938
Q54.3906 36.1875 57.875 31.5938
Q61.375 27 61.375 20.75
Q61.375 15.7188 59.25 11.3906
Q57.125 7.07812 54 4.73438
Q50.875 2.39062 46.1562 1.1875
Q41.4531 0 34.625 0
z

M16.7969 41.5
L32.2812 41.5
Q38.5781 41.5 41.3125 42.3281
Q44.9219 43.4062 46.75 45.8906
Q48.5781 48.3906 48.5781 52.1562
Q48.5781 55.7188 46.875 58.4219
Q45.1719 61.1406 41.9844 62.1406
Q38.8125 63.1406 31.1094 63.1406
L16.7969 63.1406
z

M16.7969 8.45312
L34.625 8.45312
Q39.2031 8.45312 41.0625 8.79688
Q44.3438 9.375 46.5312 10.7344
Q48.7344 12.1094 50.1406 14.7188
Q51.5625 17.3281 51.5625 20.75
Q51.5625 24.75 49.5156 27.7031
Q47.4688 30.6719 43.8281 31.8594
Q40.1875 33.0625 33.3438 33.0625
L16.7969 33.0625
z
" id="ArialMT-42"/>
      <path d="
M42.0938 16.7031
L51.1719 15.5781
Q49.0312 7.625 43.2188 3.21875
Q37.4062 -1.17188 28.375 -1.17188
Q17 -1.17188 10.3281 5.82812
Q3.65625 12.8438 3.65625 25.4844
Q3.65625 38.5781 10.3906 45.7969
Q17.1406 53.0312 27.875 53.0312
Q38.2812 53.0312 44.875 45.9531
Q51.4688 38.875 51.4688 26.0312
Q51.4688 25.25 51.4219 23.6875
L12.75 23.6875
Q13.2344 15.1406 17.5781 10.5938
Q21.9219 6.0625 28.4219 6.0625
Q33.25 6.0625 36.6719 8.59375
Q40.0938 11.1406 42.0938 16.7031
M13.2344 30.9062
L42.1875 30.9062
Q41.6094 37.4531 38.875 40.7188
Q34.6719 45.7969 27.9844 45.7969
Q21.9219 45.7969 17.7969 41.75
Q13.6719 37.7031 13.2344 30.9062" id="ArialMT-65"/>
      <path d="
M40.2344 0
L40.2344 6.54688
Q35.2969 -1.17188 25.7344 -1.17188
Q19.5312 -1.17188 14.3281 2.25
Q9.125 5.67188 6.26562 11.7969
Q3.42188 17.9219 3.42188 25.875
Q3.42188 33.6406 6 39.9688
Q8.59375 46.2969 13.7656 49.6562
Q18.9531 53.0312 25.3438 53.0312
Q30.0312 53.0312 33.6875 51.0469
Q37.3594 49.0781 39.6562 45.9062
L39.6562 71.5781
L48.3906 71.5781
L48.3906 0
z

M12.4531 25.875
Q12.4531 15.9219 16.6406 10.9844
Q20.8438 6.0625 26.5625 6.0625
Q32.3281 6.0625 36.3438 10.7656
Q40.375 15.4844 40.375 25.1406
Q40.375 35.7969 36.2656 40.7656
Q32.1719 45.75 26.1719 45.75
Q20.3125 45.75 16.375 40.9688
Q12.4531 36.1875 12.4531 25.875" id="ArialMT-64"/>
      <path d="
M25.7812 7.85938
L27.0469 0.09375
Q23.3438 -0.6875 20.4062 -0.6875
Q15.625 -0.6875 12.9844 0.828125
Q10.3594 2.34375 9.28125 4.8125
Q8.20312 7.28125 8.20312 15.1875
L8.20312 45.0156
L1.76562 45.0156
L1.76562 51.8594
L8.20312 51.8594
L8.20312 64.7031
L16.9375 69.9688
L16.9375 51.8594
L25.7812 51.8594
L25.7812 45.0156
L16.9375 45.0156
L16.9375 14.7031
Q16.9375 10.9375 17.4062 9.85938
Q17.875 8.79688 18.9219 8.15625
Q19.9688 7.51562 21.9219 7.51562
Q23.3906 7.51562 25.7812 7.85938" id="ArialMT-74"/>
      <path d="
M40.5781 0
L40.5781 7.625
Q34.5156 -1.17188 24.125 -1.17188
Q19.5312 -1.17188 15.5469 0.578125
Q11.5781 2.34375 9.64062 5
Q7.71875 7.67188 6.9375 11.5312
Q6.39062 14.1094 6.39062 19.7344
L6.39062 51.8594
L15.1875 51.8594
L15.1875 23.0938
Q15.1875 16.2188 15.7188 13.8125
Q16.5469 10.3594 19.2344 8.375
Q21.9219 6.39062 25.875 6.39062
Q29.8281 6.39062 33.2969 8.42188
Q36.7656 10.4531 38.2031 13.9375
Q39.6562 17.4375 39.6562 24.0781
L39.6562 51.8594
L48.4375 51.8594
L48.4375 0
z
" id="ArialMT-75"/>
      <path d="
M16.1562 0
L0.296875 51.8594
L9.375 51.8594
L17.625 21.9219
L20.7031 10.7969
Q20.9062 11.625 23.3906 21.4844
L31.6406 51.8594
L40.6719 51.8594
L48.4375 21.7812
L51.0312 11.8594
L54 21.875
L62.8906 51.8594
L71.4375 51.8594
L55.2188 0
L46.0938 0
L37.8438 31.0625
L35.8438 39.8906
L25.3438 0
z
" id="ArialMT-77"/>
      <path d="
M6.59375 -19.875
L6.59375 51.8594
L14.5938 51.8594
L14.5938 45.125
Q17.4375 49.0781 21 51.0469
Q24.5625 53.0312 29.6406 53.0312
Q36.2812 53.0312 41.3594 49.6094
Q46.4375 46.1875 49.0156 39.9531
Q51.6094 33.7344 51.6094 26.3125
Q51.6094 18.3594 48.75 11.9844
Q45.9062 5.60938 40.4531 2.21875
Q35.0156 -1.17188 29 -1.17188
Q24.6094 -1.17188 21.1094 0.6875
Q17.625 2.54688 15.375 5.375
L15.375 -19.875
z

M14.5469 25.6406
Q14.5469 15.625 18.5938 10.8438
Q22.6562 6.0625 28.4219 6.0625
Q34.2812 6.0625 38.4531 11.0156
Q42.625 15.9688 42.625 26.375
Q42.625 36.2812 38.5469 41.2031
Q34.4688 46.1406 28.8125 46.1406
Q23.1875 46.1406 18.8594 40.8906
Q14.5469 35.6406 14.5469 25.6406" id="ArialMT-70"/>
      <path d="
M6.5 0
L6.5 51.8594
L14.4062 51.8594
L14.4062 44
Q17.4375 49.5156 20 51.2656
Q22.5625 53.0312 25.6406 53.0312
Q30.0781 53.0312 34.6719 50.2031
L31.6406 42.0469
Q28.4219 43.9531 25.2031 43.9531
Q22.3125 43.9531 20.0156 42.2188
Q17.7188 40.4844 16.75 37.4062
Q15.2812 32.7188 15.2812 27.1562
L15.2812 0
z
" id="ArialMT-72"/>
      <path d="
M3.07812 15.4844
L11.7656 16.8438
Q12.5 11.625 15.8438 8.84375
Q19.1875 6.0625 25.2031 6.0625
Q31.25 6.0625 34.1719 8.51562
Q37.1094 10.9844 37.1094 14.3125
Q37.1094 17.2812 34.5156 19
Q32.7188 20.1719 25.5312 21.9688
Q15.875 24.4219 12.1406 26.2031
Q8.40625 27.9844 6.46875 31.125
Q4.54688 34.2812 4.54688 38.0938
Q4.54688 41.5469 6.125 44.5
Q7.71875 47.4688 10.4531 49.4219
Q12.5 50.9219 16.0312 51.9688
Q19.5781 53.0312 23.6406 53.0312
Q29.7344 53.0312 34.3438 51.2656
Q38.9688 49.5156 41.1562 46.5
Q43.3594 43.5 44.1875 38.4844
L35.5938 37.3125
Q35.0156 41.3125 32.2031 43.5469
Q29.3906 45.7969 24.2656 45.7969
Q18.2188 45.7969 15.625 43.7969
Q13.0312 41.7969 13.0312 39.1094
Q13.0312 37.4062 14.1094 36.0312
Q15.1875 34.625 17.4844 33.6875
Q18.7969 33.2031 25.25 31.4531
Q34.5781 28.9531 38.25 27.3594
Q41.9375 25.7812 44.0312 22.75
Q46.1406 19.7344 46.1406 15.2344
Q46.1406 10.8438 43.5781 6.95312
Q41.0156 3.07812 36.1719 0.953125
Q31.3438 -1.17188 25.25 -1.17188
Q15.1406 -1.17188 9.84375 3.03125
Q4.54688 7.23438 3.07812 15.4844" id="ArialMT-73"/>
      <path d="
M6.39062 0
L6.39062 71.5781
L15.1875 71.5781
L15.1875 0
z
" id="ArialMT-6c"/>
      <path d="
M3.32812 25.9219
Q3.32812 40.3281 11.3281 47.2656
Q18.0156 53.0312 27.6406 53.0312
Q38.3281 53.0312 45.1094 46.0156
Q51.9062 39.0156 51.9062 26.6562
Q51.9062 16.6562 48.9062 10.9062
Q45.9062 5.17188 40.1562 2
Q34.4219 -1.17188 27.6406 -1.17188
Q16.75 -1.17188 10.0312 5.8125
Q3.32812 12.7969 3.32812 25.9219
M12.3594 25.9219
Q12.3594 15.9688 16.7031 11.0156
Q21.0469 6.0625 27.6406 6.0625
Q34.1875 6.0625 38.5312 11.0312
Q42.875 16.0156 42.875 26.2188
Q42.875 35.8438 38.5 40.7969
Q34.125 45.75 27.6406 45.75
Q21.0469 45.75 16.7031 40.8125
Q12.3594 35.8906 12.3594 25.9219" id="ArialMT-6f"/>
      <path d="
M6.59375 0
L6.59375 51.8594
L14.5 51.8594
L14.5 44.4844
Q20.2188 53.0312 31 53.0312
Q35.6875 53.0312 39.625 51.3438
Q43.5625 49.6562 45.5156 46.9219
Q47.4688 44.1875 48.25 40.4375
Q48.7344 37.9844 48.7344 31.8906
L48.7344 0
L39.9375 0
L39.9375 31.5469
Q39.9375 36.9219 38.9062 39.5781
Q37.8906 42.2344 35.2812 43.8125
Q32.6719 45.4062 29.1562 45.4062
Q23.5312 45.4062 19.4531 41.8438
Q15.375 38.2812 15.375 28.3281
L15.375 0
z
" id="ArialMT-6e"/>
      <path d="
M6.59375 0
L6.59375 51.8594
L14.4531 51.8594
L14.4531 44.5781
Q16.8906 48.3906 20.9375 50.7031
Q25 53.0312 30.1719 53.0312
Q35.9375 53.0312 39.625 50.6406
Q43.3125 48.25 44.8281 43.9531
Q50.9844 53.0312 60.8438 53.0312
Q68.5625 53.0312 72.7031 48.75
Q76.8594 44.4844 76.8594 35.5938
L76.8594 0
L68.1094 0
L68.1094 32.6719
Q68.1094 37.9375 67.25 40.25
Q66.4062 42.5781 64.1562 43.9844
Q61.9219 45.4062 58.8906 45.4062
Q53.4219 45.4062 49.7969 41.7656
Q46.1875 38.1406 46.1875 30.125
L46.1875 0
L37.4062 0
L37.4062 33.6875
Q37.4062 39.5469 35.25 42.4688
Q33.1094 45.4062 28.2188 45.4062
Q24.5156 45.4062 21.3594 43.4531
Q18.2188 41.5 16.7969 37.7344
Q15.375 33.9844 15.375 26.9062
L15.375 0
z
" id="ArialMT-6d"/>
      <path d="
M6.78125 -19.875
L6.78125 71.5781
L26.1719 71.5781
L26.1719 64.3125
L15.5781 64.3125
L15.5781 -12.5938
L26.1719 -12.5938
L26.1719 -19.875
z
" id="ArialMT-5b"/>
      <path d="
M7.42188 0
L7.42188 71.5781
L21.6875 71.5781
L38.625 20.9062
Q40.9688 13.8125 42.0469 10.2969
Q43.2656 14.2031 45.8438 21.7812
L62.9844 71.5781
L75.7344 71.5781
L75.7344 0
L66.6094 0
L66.6094 59.9062
L45.7969 0
L37.25 0
L16.5469 60.9375
L16.5469 0
z
" id="ArialMT-4d"/>
      <path d="
M21.2969 -19.875
L1.90625 -19.875
L1.90625 -12.5938
L12.5 -12.5938
L12.5 64.3125
L1.90625 64.3125
L1.90625 71.5781
L21.2969 71.5781
z
" id="ArialMT-5d"/>
      <path id="ArialMT-20"/>
     </defs>
     <g transform="translate(385.12875 826.929375)scale(0.24 -0.24)">
      <use xlink:href="#ArialMT-4d"/>
      <use x="83.30078125" xlink:href="#ArialMT-65"/>
      <use x="138.916015625" xlink:href="#ArialMT-61"/>
      <use x="194.53125" xlink:href="#ArialMT-73"/>
      <use x="244.53125" xlink:href="#ArialMT-75"/>
      <use x="300.146484375" xlink:href="#ArialMT-72"/>
      <use x="333.447265625" xlink:href="#ArialMT-65"/>
      <use x="389.0625" xlink:href="#ArialMT-6d"/>
      <use x="472.36328125" xlink:href="#ArialMT-65"/>
      <use x="527.978515625" xlink:href="#ArialMT-6e"/>
      <use x="583.59375" xlink:href="#ArialMT-74"/>
      <use x="611.376953125" xlink:href="#ArialMT-20"/>
      <use x="639.16015625" xlink:href="#ArialMT-70"/>
      <use x="694.775390625" xlink:href="#ArialMT-75"/>
      <use x="750.390625" xlink:href="#ArialMT-6c"/>
      <use x="772.607421875" xlink:href="#ArialMT-73"/>
      <use x="822.607421875" xlink:href="#ArialMT-65"/>
      <use x="878.22265625" xlink:href="#ArialMT-20"/>
      <use x="906.005859375" xlink:href="#ArialMT-70"/>
      <use x="961.62109375" xlink:href="#ArialMT-6f"/>
      <use x="1017.23632812" xlink:href="#ArialMT-77"/>
      <use x="1089.453125" xlink:href="#ArialMT-65"/>
      <use x="1145.06835938" xlink:href="#ArialMT-72"/>
      <use x="1178.36914062" xlink:href="#ArialMT-20"/>
      <use x="1206.15234375" xlink:href="#ArialMT-5b"/>
      <use x="1233.93554688" xlink:href="#ArialMT-64"/>
      <use x="1289.55078125" xlink:href="#ArialMT-42"/>
      <use x="1356.25" xlink:href="#ArialMT-6d"/>
      <use x="1439.55078125" xlink:href="#ArialMT-5d"/>
     </g>
    </g>
   </g>
   <g id="matplotlib.axis_2">
    <g id="ytick_1">
     <g id="line2d_20">
      <path clip-path="url(#p31a478d812)" d="
M136.688 782.46
L984.15 782.46" style="fill:none;stroke:#000000;stroke-dasharray:1.000000,3.000000;stroke-dashoffset:0.0;stroke-width:2;"/>
     </g>
     <g id="line2d_21">
      <defs>
       <path d="
M0 0
L2 0" id="mcb4a6f1d50" style="stroke:#000000;stroke-width:2;"/>
      </defs>
      <g>
       <use style="stroke:#000000;stroke-width:2;" x="136.6875" xlink:href="#mcb4a6f1d50" y="782.46"/>
      </g>
     </g>
     <g id="line2d_22">
      <defs>
       <path d="
M0 0
L-2 0" id="md3235cffa8" style="stroke:#000000;stroke-width:2;"/>
      </defs>
      <g>
       <use style="stroke:#000000;stroke-width:2;" x="984.15" xlink:href="#md3235cffa8" y="782.46"/>
      </g>
     </g>
     <g id="text_7">
      <!-- $\mathdefault{10^{-3}}$ -->
      <defs>
       <path d="
M37.25 0
L28.4688 0
L28.4688 56
Q25.2969 52.9844 20.1406 49.9531
Q14.9844 46.9219 10.8906 45.4062
L10.8906 53.9062
Q18.2656 57.375 23.7812 62.2969
Q29.2969 67.2344 31.5938 71.875
L37.25 71.875
z
" id="ArialMT-31"/>
       <path d="
M3.17188 21.4844
L3.17188 30.3281
L30.1719 30.3281
L30.1719 21.4844
z
" id="ArialMT-2d"/>
      </defs>
      <g transform="translate(93.8875 788.785)scale(0.2 -0.2)">
       <use transform="translate(0.0 0.90625)" xlink:href="#ArialMT-31"/>
       <use transform="translate(55.615234375 0.90625)" xlink:href="#ArialMT-30"/>
       <use transform="translate(111.23046875 50.6875)scale(0.7)" xlink:href="#ArialMT-2d"/>
       <use transform="translate(134.541015625 50.6875)scale(0.7)" xlink:href="#ArialMT-33"/>
      </g>
     </g>
    </g>
    <g id="ytick_2">
     <g id="line2d_23">
      <path clip-path="url(#p31a478d812)" d="
M136.688 571.762
L984.15 571.762" style="fill:none;stroke:#000000;stroke-dasharray:1.000000,3.000000;stroke-dashoffset:0.0;stroke-width:2;"/>
     </g>
     <g id="line2d_24">
      <g>
       <use style="stroke:#000000;stroke-width:2;" x="136.6875" xlink:href="#mcb4a6f1d50" y="571.762126635"/>
      </g>
     </g>
     <g id="line2d_25">
      <g>
       <use style="stroke:#000000;stroke-width:2;" x="984.15" xlink:href="#md3235cffa8" y="571.762126635"/>
      </g>
     </g>
     <g id="text_8">
      <!-- $\mathdefault{10^{-2}}$ -->
      <defs>
       <path d="
M50.3438 8.45312
L50.3438 0
L3.03125 0
Q2.9375 3.17188 4.04688 6.10938
Q5.85938 10.9375 9.82812 15.625
Q13.8125 20.3125 21.3438 26.4688
Q33.0156 36.0312 37.1094 41.625
Q41.2188 47.2188 41.2188 52.2031
Q41.2188 57.4219 37.4688 61
Q33.7344 64.5938 27.7344 64.5938
Q21.3906 64.5938 17.5781 60.7812
Q13.7656 56.9844 13.7188 50.25
L4.6875 51.1719
Q5.60938 61.2812 11.6562 66.5781
Q17.7188 71.875 27.9375 71.875
Q38.2344 71.875 44.2344 66.1562
Q50.25 60.4531 50.25 52
Q50.25 47.7031 48.4844 43.5469
Q46.7344 39.4062 42.6562 34.8125
Q38.5781 30.2188 29.1094 22.2188
Q21.1875 15.5781 18.9375 13.2031
Q16.7031 10.8438 15.2344 8.45312
z
" id="ArialMT-32"/>
      </defs>
      <g transform="translate(93.8875 578.087126635)scale(0.2 -0.2)">
       <use transform="translate(0.0 0.90625)" xlink:href="#ArialMT-31"/>
       <use transform="translate(55.615234375 0.90625)" xlink:href="#ArialMT-30"/>
       <use transform="translate(111.23046875 50.6875)scale(0.7)" xlink:href="#ArialMT-2d"/>
       <use transform="translate(134.541015625 50.6875)scale(0.7)" xlink:href="#ArialMT-32"/>
      </g>
     </g>
    </g>
    <g id="ytick_3">
     <g id="line2d_26">
      <path clip-path="url(#p31a478d812)" d="
M136.688 361.064
L984.15 361.064" style="fill:none;stroke:#000000;stroke-dasharray:1.000000,3.000000;stroke-dashoffset:0.0;stroke-width:2;"/>
     </g>
     <g id="line2d_27">
      <g>
       <use style="stroke:#000000;stroke-width:2;" x="136.6875" xlink:href="#mcb4a6f1d50" y="361.06425327"/>
      </g>
     </g>
     <g id="line2d_28">
      <g>
       <use style="stroke:#000000;stroke-width:2;" x="984.15" xlink:href="#md3235cffa8" y="361.06425327"/>
      </g>
     </g>
     <g id="text_9">
      <!-- $\mathdefault{10^{-1}}$ -->
      <g transform="translate(93.8875 367.38925327)scale(0.2 -0.2)">
       <use transform="translate(0.0 0.90625)" xlink:href="#ArialMT-31"/>
       <use transform="translate(55.615234375 0.90625)" xlink:href="#ArialMT-30"/>
       <use transform="translate(111.23046875 50.6875)scale(0.7)" xlink:href="#ArialMT-2d"/>
       <use transform="translate(134.541015625 50.6875)scale(0.7)" xlink:href="#ArialMT-31"/>
      </g>
     </g>
    </g>
    <g id="ytick_4">
     <g id="line2d_29">
      <path clip-path="url(#p31a478d812)" d="
M136.688 150.366
L984.15 150.366" style="fill:none;stroke:#000000;stroke-dasharray:1.000000,3.000000;stroke-dashoffset:0.0;stroke-width:2;"/>
     </g>
     <g id="line2d_30">
      <g>
       <use style="stroke:#000000;stroke-width:2;" x="136.6875" xlink:href="#mcb4a6f1d50" y="150.366379905"/>
      </g>
     </g>
     <g id="line2d_31">
      <g>
       <use style="stroke:#000000;stroke-width:2;" x="984.15" xlink:href="#md3235cffa8" y="150.366379905"/>
      </g>
     </g>
     <g id="text_10">
      <!-- $\mathdefault{10^{0}}$ -->
      <g transform="translate(98.4875 156.691379905)scale(0.2 -0.2)">
       <use transform="translate(0.0 0.90625)" xlink:href="#ArialMT-31"/>
       <use transform="translate(55.615234375 0.90625)" xlink:href="#ArialMT-30"/>
       <use transform="translate(111.23046875 50.6875)scale(0.7)" xlink:href="#ArialMT-30"/>
      </g>
     </g>
    </g>
    <g id="ytick_5">
     <g id="line2d_32">
      <defs>
       <path d="
M0 0
L2 0" id="mf0c55a9a47" style="stroke:#000000;stroke-width:0.5;"/>
      </defs>
      <g>
       <use style="stroke:#000000;stroke-width:0.5;" x="136.6875" xlink:href="#mf0c55a9a47" y="719.033620095"/>
      </g>
     </g>
     <g id="line2d_33">
      <defs>
       <path d="
M0 0
L-2 0" id="ma4f294b3af" style="stroke:#000000;stroke-width:0.5;"/>
      </defs>
      <g>
       <use style="stroke:#000000;stroke-width:0.5;" x="984.15" xlink:href="#ma4f294b3af" y="719.033620095"/>
      </g>
     </g>
    </g>
    <g id="ytick_6">
     <g id="line2d_34">
      <g>
       <use style="stroke:#000000;stroke-width:0.5;" x="136.6875" xlink:href="#mf0c55a9a47" y="681.931566293"/>
      </g>
     </g>
     <g id="line2d_35">
      <g>
       <use style="stroke:#000000;stroke-width:0.5;" x="984.15" xlink:href="#ma4f294b3af" y="681.931566293"/>
      </g>
     </g>
    </g>
    <g id="ytick_7">
     <g id="line2d_36">
      <g>
       <use style="stroke:#000000;stroke-width:0.5;" x="136.6875" xlink:href="#mf0c55a9a47" y="655.607240189"/>
      </g>
     </g>
     <g id="line2d_37">
      <g>
       <use style="stroke:#000000;stroke-width:0.5;" x="984.15" xlink:href="#ma4f294b3af" y="655.607240189"/>
      </g>
     </g>
    </g>
    <g id="ytick_8">
     <g id="line2d_38">
      <g>
       <use style="stroke:#000000;stroke-width:0.5;" x="136.6875" xlink:href="#mf0c55a9a47" y="635.188506541"/>
      </g>
     </g>
     <g id="line2d_39">
      <g>
       <use style="stroke:#000000;stroke-width:0.5;" x="984.15" xlink:href="#ma4f294b3af" y="635.188506541"/>
      </g>
     </g>
    </g>
    <g id="ytick_9">
     <g id="line2d_40">
      <g>
       <use style="stroke:#000000;stroke-width:0.5;" x="136.6875" xlink:href="#mf0c55a9a47" y="618.505186388"/>
      </g>
     </g>
     <g id="line2d_41">
      <g>
       <use style="stroke:#000000;stroke-width:0.5;" x="984.15" xlink:href="#ma4f294b3af" y="618.505186388"/>
      </g>
     </g>
    </g>
    <g id="ytick_10">
     <g id="line2d_42">
      <g>
       <use style="stroke:#000000;stroke-width:0.5;" x="136.6875" xlink:href="#mf0c55a9a47" y="604.399640184"/>
      </g>
     </g>
     <g id="line2d_43">
      <g>
       <use style="stroke:#000000;stroke-width:0.5;" x="984.15" xlink:href="#ma4f294b3af" y="604.399640184"/>
      </g>
     </g>
    </g>
    <g id="ytick_11">
     <g id="line2d_44">
      <g>
       <use style="stroke:#000000;stroke-width:0.5;" x="136.6875" xlink:href="#mf0c55a9a47" y="592.180860284"/>
      </g>
     </g>
     <g id="line2d_45">
      <g>
       <use style="stroke:#000000;stroke-width:0.5;" x="984.15" xlink:href="#ma4f294b3af" y="592.180860284"/>
      </g>
     </g>
    </g>
    <g id="ytick_12">
     <g id="line2d_46">
      <g>
       <use style="stroke:#000000;stroke-width:0.5;" x="136.6875" xlink:href="#mf0c55a9a47" y="581.403132587"/>
      </g>
     </g>
     <g id="line2d_47">
      <g>
       <use style="stroke:#000000;stroke-width:0.5;" x="984.15" xlink:href="#ma4f294b3af" y="581.403132587"/>
      </g>
     </g>
    </g>
    <g id="ytick_13">
     <g id="line2d_48">
      <g>
       <use style="stroke:#000000;stroke-width:0.5;" x="136.6875" xlink:href="#mf0c55a9a47" y="508.33574673"/>
      </g>
     </g>
     <g id="line2d_49">
      <g>
       <use style="stroke:#000000;stroke-width:0.5;" x="984.15" xlink:href="#ma4f294b3af" y="508.33574673"/>
      </g>
     </g>
    </g>
    <g id="ytick_14">
     <g id="line2d_50">
      <g>
       <use style="stroke:#000000;stroke-width:0.5;" x="136.6875" xlink:href="#mf0c55a9a47" y="471.233692929"/>
      </g>
     </g>
     <g id="line2d_51">
      <g>
       <use style="stroke:#000000;stroke-width:0.5;" x="984.15" xlink:href="#ma4f294b3af" y="471.233692929"/>
      </g>
     </g>
    </g>
    <g id="ytick_15">
     <g id="line2d_52">
      <g>
       <use style="stroke:#000000;stroke-width:0.5;" x="136.6875" xlink:href="#mf0c55a9a47" y="444.909366824"/>
      </g>
     </g>
     <g id="line2d_53">
      <g>
       <use style="stroke:#000000;stroke-width:0.5;" x="984.15" xlink:href="#ma4f294b3af" y="444.909366824"/>
      </g>
     </g>
    </g>
    <g id="ytick_16">
     <g id="line2d_54">
      <g>
       <use style="stroke:#000000;stroke-width:0.5;" x="136.6875" xlink:href="#mf0c55a9a47" y="424.490633176"/>
      </g>
     </g>
     <g id="line2d_55">
      <g>
       <use style="stroke:#000000;stroke-width:0.5;" x="984.15" xlink:href="#ma4f294b3af" y="424.490633176"/>
      </g>
     </g>
    </g>
    <g id="ytick_17">
     <g id="line2d_56">
      <g>
       <use style="stroke:#000000;stroke-width:0.5;" x="136.6875" xlink:href="#mf0c55a9a47" y="407.807313023"/>
      </g>
     </g>
     <g id="line2d_57">
      <g>
       <use style="stroke:#000000;stroke-width:0.5;" x="984.15" xlink:href="#ma4f294b3af" y="407.807313023"/>
      </g>
     </g>
    </g>
    <g id="ytick_18">
     <g id="line2d_58">
      <g>
       <use style="stroke:#000000;stroke-width:0.5;" x="136.6875" xlink:href="#mf0c55a9a47" y="393.701766819"/>
      </g>
     </g>
     <g id="line2d_59">
      <g>
       <use style="stroke:#000000;stroke-width:0.5;" x="984.15" xlink:href="#ma4f294b3af" y="393.701766819"/>
      </g>
     </g>
    </g>
    <g id="ytick_19">
     <g id="line2d_60">
      <g>
       <use style="stroke:#000000;stroke-width:0.5;" x="136.6875" xlink:href="#mf0c55a9a47" y="381.482986919"/>
      </g>
     </g>
     <g id="line2d_61">
      <g>
       <use style="stroke:#000000;stroke-width:0.5;" x="984.15" xlink:href="#ma4f294b3af" y="381.482986919"/>
      </g>
     </g>
    </g>
    <g id="ytick_20">
     <g id="line2d_62">
      <g>
       <use style="stroke:#000000;stroke-width:0.5;" x="136.6875" xlink:href="#mf0c55a9a47" y="370.705259222"/>
      </g>
     </g>
     <g id="line2d_63">
      <g>
       <use style="stroke:#000000;stroke-width:0.5;" x="984.15" xlink:href="#ma4f294b3af" y="370.705259222"/>
      </g>
     </g>
    </g>
    <g id="ytick_21">
     <g id="line2d_64">
      <g>
       <use style="stroke:#000000;stroke-width:0.5;" x="136.6875" xlink:href="#mf0c55a9a47" y="297.637873365"/>
      </g>
     </g>
     <g id="line2d_65">
      <g>
       <use style="stroke:#000000;stroke-width:0.5;" x="984.15" xlink:href="#ma4f294b3af" y="297.637873365"/>
      </g>
     </g>
    </g>
    <g id="ytick_22">
     <g id="line2d_66">
      <g>
       <use style="stroke:#000000;stroke-width:0.5;" x="136.6875" xlink:href="#mf0c55a9a47" y="260.535819564"/>
      </g>
     </g>
     <g id="line2d_67">
      <g>
       <use style="stroke:#000000;stroke-width:0.5;" x="984.15" xlink:href="#ma4f294b3af" y="260.535819564"/>
      </g>
     </g>
    </g>
    <g id="ytick_23">
     <g id="line2d_68">
      <g>
       <use style="stroke:#000000;stroke-width:0.5;" x="136.6875" xlink:href="#mf0c55a9a47" y="234.211493459"/>
      </g>
     </g>
     <g id="line2d_69">
      <g>
       <use style="stroke:#000000;stroke-width:0.5;" x="984.15" xlink:href="#ma4f294b3af" y="234.211493459"/>
      </g>
     </g>
    </g>
    <g id="ytick_24">
     <g id="line2d_70">
      <g>
       <use style="stroke:#000000;stroke-width:0.5;" x="136.6875" xlink:href="#mf0c55a9a47" y="213.792759811"/>
      </g>
     </g>
     <g id="line2d_71">
      <g>
       <use style="stroke:#000000;stroke-width:0.5;" x="984.15" xlink:href="#ma4f294b3af" y="213.792759811"/>
      </g>
     </g>
    </g>
    <g id="ytick_25">
     <g id="line2d_72">
      <g>
       <use style="stroke:#000000;stroke-width:0.5;" x="136.6875" xlink:href="#mf0c55a9a47" y="197.109439658"/>
      </g>
     </g>
     <g id="line2d_73">
      <g>
       <use style="stroke:#000000;stroke-width:0.5;" x="984.15" xlink:href="#ma4f294b3af" y="197.109439658"/>
      </g>
     </g>
    </g>
    <g id="ytick_26">
     <g id="line2d_74">
      <g>
       <use style="stroke:#000000;stroke-width:0.5;" x="136.6875" xlink:href="#mf0c55a9a47" y="183.003893454"/>
      </g>
     </g>
     <g id="line2d_75">
      <g>
       <use style="stroke:#000000;stroke-width:0.5;" x="984.15" xlink:href="#ma4f294b3af" y="183.003893454"/>
      </g>
     </g>
    </g>
    <g id="ytick_27">
     <g id="line2d_76">
      <g>
       <use style="stroke:#000000;stroke-width:0.5;" x="136.6875" xlink:href="#mf0c55a9a47" y="170.785113554"/>
      </g>
     </g>
     <g id="line2d_77">
      <g>
       <use style="stroke:#000000;stroke-width:0.5;" x="984.15" xlink:href="#ma4f294b3af" y="170.785113554"/>
      </g>
     </g>
    </g>
    <g id="ytick_28">
     <g id="line2d_78">
      <g>
       <use style="stroke:#000000;stroke-width:0.5;" x="136.6875" xlink:href="#mf0c55a9a47" y="160.007385857"/>
      </g>
     </g>
     <g id="line2d_79">
      <g>
       <use style="stroke:#000000;stroke-width:0.5;" x="984.15" xlink:href="#ma4f294b3af" y="160.007385857"/>
      </g>
     </g>
    </g>
    <g id="ytick_29">
     <g id="line2d_80">
      <g>
       <use style="stroke:#000000;stroke-width:0.5;" x="136.6875" xlink:href="#mf0c55a9a47" y="86.94"/>
      </g>
     </g>
     <g id="line2d_81">
      <g>
       <use style="stroke:#000000;stroke-width:0.5;" x="984.15" xlink:href="#ma4f294b3af" y="86.94"/>
      </g>
     </g>
    </g>
    <g id="text_11">
     <!-- Relative Ramsey visibility -->
     <defs>
      <path d="
M7.85938 0
L7.85938 71.5781
L39.5938 71.5781
Q49.1719 71.5781 54.1406 69.6406
Q59.125 67.7188 62.1094 62.8281
Q65.0938 57.9531 65.0938 52.0469
Q65.0938 44.4375 60.1562 39.2031
Q55.2188 33.9844 44.9219 32.5625
Q48.6875 30.7656 50.6406 29
Q54.7812 25.2031 58.5 19.4844
L70.9531 0
L59.0312 0
L49.5625 14.8906
Q45.4062 21.3438 42.7188 24.75
Q40.0469 28.1719 37.9219 29.5312
Q35.7969 30.9062 33.5938 31.4531
Q31.9844 31.7812 28.3281 31.7812
L17.3281 31.7812
L17.3281 0
z

M17.3281 39.9844
L37.7031 39.9844
Q44.1875 39.9844 47.8438 41.3281
Q51.5156 42.6719 53.4219 45.625
Q55.3281 48.5781 55.3281 52.0469
Q55.3281 57.125 51.6406 60.3906
Q47.9531 63.6719 39.9844 63.6719
L17.3281 63.6719
z
" id="ArialMT-52"/>
      <path d="
M14.7031 0
L6.54688 0
L6.54688 71.5781
L15.3281 71.5781
L15.3281 46.0469
Q20.9062 53.0312 29.5469 53.0312
Q34.3281 53.0312 38.5938 51.0938
Q42.875 49.1719 45.625 45.6719
Q48.3906 42.1875 49.9531 37.25
Q51.5156 32.3281 51.5156 26.7031
Q51.5156 13.375 44.9219 6.09375
Q38.3281 -1.17188 29.1094 -1.17188
Q19.9219 -1.17188 14.7031 6.5
z

M14.5938 26.3125
Q14.5938 17 17.1406 12.8438
Q21.2969 6.0625 28.375 6.0625
Q34.125 6.0625 38.3281 11.0625
Q42.5312 16.0625 42.5312 25.9844
Q42.5312 36.1406 38.5 40.9688
Q34.4688 45.7969 28.7656 45.7969
Q23 45.7969 18.7969 40.7969
Q14.5938 35.7969 14.5938 26.3125" id="ArialMT-62"/>
      <path d="
M6.64062 61.4688
L6.64062 71.5781
L15.4375 71.5781
L15.4375 61.4688
z

M6.64062 0
L6.64062 51.8594
L15.4375 51.8594
L15.4375 0
z
" id="ArialMT-69"/>
      <path d="
M21 0
L1.26562 51.8594
L10.5469 51.8594
L21.6875 20.7969
Q23.4844 15.7656 25 10.3594
Q26.1719 14.4531 28.2656 20.2188
L39.7969 51.8594
L48.8281 51.8594
L29.2031 0
z
" id="ArialMT-76"/>
      <path d="
M6.20312 -19.9688
L5.21875 -11.7188
Q8.10938 -12.5 10.25 -12.5
Q13.1875 -12.5 14.9375 -11.5156
Q16.7031 -10.5469 17.8281 -8.79688
Q18.6562 -7.46875 20.5156 -2.25
Q20.75 -1.51562 21.2969 -0.09375
L1.60938 51.8594
L11.0781 51.8594
L21.875 21.8281
Q23.9688 16.1094 25.6406 9.8125
Q27.1562 15.875 29.25 21.625
L40.3281 51.8594
L49.125 51.8594
L29.3906 -0.875
Q26.2188 -9.42188 24.4688 -12.6406
Q22.125 -17 19.0938 -19.0156
Q16.0625 -21.0469 11.8594 -21.0469
Q9.32812 -21.0469 6.20312 -19.9688" id="ArialMT-79"/>
     </defs>
     <g transform="translate(83.83625 569.960625)rotate(-90.0)scale(0.24 -0.24)">
      <use xlink:href="#ArialMT-52"/>
      <use x="72.216796875" xlink:href="#ArialMT-65"/>
      <use x="127.83203125" xlink:href="#ArialMT-6c"/>
      <use x="150.048828125" xlink:href="#ArialMT-61"/>
      <use x="205.6640625" xlink:href="#ArialMT-74"/>
      <use x="233.447265625" xlink:href="#ArialMT-69"/>
      <use x="255.6640625" xlink:href="#ArialMT-76"/>
      <use x="305.6640625" xlink:href="#ArialMT-65"/>
      <use x="361.279296875" xlink:href="#ArialMT-20"/>
      <use x="389.0625" xlink:href="#ArialMT-52"/>
      <use x="461.279296875" xlink:href="#ArialMT-61"/>
      <use x="516.89453125" xlink:href="#ArialMT-6d"/>
      <use x="600.1953125" xlink:href="#ArialMT-73"/>
      <use x="650.1953125" xlink:href="#ArialMT-65"/>
      <use x="705.810546875" xlink:href="#ArialMT-79"/>
      <use x="755.810546875" xlink:href="#ArialMT-20"/>
      <use x="783.59375" xlink:href="#ArialMT-76"/>
      <use x="833.59375" xlink:href="#ArialMT-69"/>
      <use x="855.810546875" xlink:href="#ArialMT-73"/>
      <use x="905.810546875" xlink:href="#ArialMT-69"/>
      <use x="928.02734375" xlink:href="#ArialMT-62"/>
      <use x="983.642578125" xlink:href="#ArialMT-69"/>
      <use x="1005.859375" xlink:href="#ArialMT-6c"/>
      <use x="1028.07617188" xlink:href="#ArialMT-69"/>
      <use x="1050.29296875" xlink:href="#ArialMT-74"/>
      <use x="1078.07617188" xlink:href="#ArialMT-79"/>
     </g>
    </g>
   </g>
   <g id="patch_3">
    <path d="
M136.688 86.94
L984.15 86.94" style="fill:none;stroke:#000000;"/>
   </g>
   <g id="patch_4">
    <path d="
M984.15 782.46
L984.15 86.94" style="fill:none;stroke:#000000;"/>
   </g>
   <g id="patch_5">
    <path d="
M136.688 782.46
L984.15 782.46" style="fill:none;stroke:#000000;"/>
   </g>
   <g id="patch_6">
    <path d="
M136.688 782.46
L136.688 86.94" style="fill:none;stroke:#000000;"/>
   </g>
   <g id="patch_7">
    <path d="
M858.628 337.057
Q779.345 337.057 700.063 337.057" style="fill:none;stroke:#000000;stroke-linecap:round;stroke-width:4;"/>
    <path d="
M853.828 334.657
L858.628 337.057
L853.828 339.457" style="fill:none;stroke:#000000;stroke-linecap:round;stroke-width:4;"/>
    <path d="
M704.863 339.457
L700.063 337.057
L704.863 334.657" style="fill:none;stroke:#000000;stroke-linecap:round;stroke-width:4;"/>
   </g>
   <g id="text_12">
    <!-- 9 dB -->
    <defs>
     <path d="
M5.46875 16.5469
L13.9219 17.3281
Q14.9844 11.375 18.0156 8.6875
Q21.0469 6 25.7812 6
Q29.8281 6 32.875 7.85938
Q35.9375 9.71875 37.8906 12.8125
Q39.8438 15.9219 41.1562 21.1875
Q42.4844 26.4688 42.4844 31.9375
Q42.4844 32.5156 42.4375 33.6875
Q39.7969 29.5 35.2344 26.875
Q30.6719 24.2656 25.3438 24.2656
Q16.4531 24.2656 10.2969 30.7031
Q4.15625 37.1562 4.15625 47.7031
Q4.15625 58.5938 10.5781 65.2344
Q17 71.875 26.6562 71.875
Q33.6406 71.875 39.4219 68.1094
Q45.2188 64.3594 48.2188 57.3906
Q51.2188 50.4375 51.2188 37.25
Q51.2188 23.5312 48.2344 15.4062
Q45.2656 7.28125 39.375 3.03125
Q33.5 -1.21875 25.5938 -1.21875
Q17.1875 -1.21875 11.8594 3.4375
Q6.54688 8.10938 5.46875 16.5469
M41.4531 48.1406
Q41.4531 55.7188 37.4219 60.1562
Q33.4062 64.5938 27.7344 64.5938
Q21.875 64.5938 17.5312 59.8125
Q13.1875 55.0312 13.1875 47.4062
Q13.1875 40.5781 17.3125 36.2969
Q21.4375 32.0312 27.4844 32.0312
Q33.5938 32.0312 37.5156 36.2969
Q41.4531 40.5781 41.4531 48.1406" id="ArialMT-39"/>
    </defs>
    <g transform="translate(772.284375 323.962199469)scale(0.24 -0.24)">
     <use xlink:href="#ArialMT-39"/>
     <use x="55.615234375" xlink:href="#ArialMT-20"/>
     <use x="83.3984375" xlink:href="#ArialMT-64"/>
     <use x="139.013671875" xlink:href="#ArialMT-42"/>
    </g>
   </g>
   <g id="legend_1">
    <g id="patch_8">
     <path d="
M145.688 773.46
L483.907 773.46
L483.907 690.188
L145.688 690.188
L145.688 773.46
z
" style="fill:#ffffff;stroke:#000000;"/>
    </g>
    <g id="line2d_82"/>
    <g id="line2d_83">
     <g>
      <use style="fill:#0000ff;" x="170.8875" xlink:href="#m73594d56c2" y="703.9715625"/>
     </g>
    </g>
    <g id="text_13">
     <!-- Measured Ramsey visibility -->
     <g transform="translate(203.2875 710.2715625)scale(0.18 -0.18)">
      <use xlink:href="#ArialMT-4d"/>
      <use x="83.30078125" xlink:href="#ArialMT-65"/>
      <use x="138.916015625" xlink:href="#ArialMT-61"/>
      <use x="194.53125" xlink:href="#ArialMT-73"/>
      <use x="244.53125" xlink:href="#ArialMT-75"/>
      <use x="300.146484375" xlink:href="#ArialMT-72"/>
      <use x="333.447265625" xlink:href="#ArialMT-65"/>
      <use x="389.0625" xlink:href="#ArialMT-64"/>
      <use x="444.677734375" xlink:href="#ArialMT-20"/>
      <use x="472.4609375" xlink:href="#ArialMT-52"/>
      <use x="544.677734375" xlink:href="#ArialMT-61"/>
      <use x="600.29296875" xlink:href="#ArialMT-6d"/>
      <use x="683.59375" xlink:href="#ArialMT-73"/>
      <use x="733.59375" xlink:href="#ArialMT-65"/>
      <use x="789.208984375" xlink:href="#ArialMT-79"/>
      <use x="839.208984375" xlink:href="#ArialMT-20"/>
      <use x="866.9921875" xlink:href="#ArialMT-76"/>
      <use x="916.9921875" xlink:href="#ArialMT-69"/>
      <use x="939.208984375" xlink:href="#ArialMT-73"/>
      <use x="989.208984375" xlink:href="#ArialMT-69"/>
      <use x="1011.42578125" xlink:href="#ArialMT-62"/>
      <use x="1067.04101562" xlink:href="#ArialMT-69"/>
      <use x="1089.2578125" xlink:href="#ArialMT-6c"/>
      <use x="1111.47460938" xlink:href="#ArialMT-69"/>
      <use x="1133.69140625" xlink:href="#ArialMT-74"/>
      <use x="1161.47460938" xlink:href="#ArialMT-79"/>
     </g>
    </g>
    <g id="line2d_84"/>
    <g id="line2d_85">
     <g>
      <use style="fill:#008000;" x="170.8875" xlink:href="#m1e476a3337" y="729.9"/>
     </g>
    </g>
    <g id="text_14">
     <!-- Quantum limit visibility: $\eta=1$ -->
     <defs>
      <path d="
M7.51562 13.2812
Q6.6875 13.2812 6.14062 13.9062
Q5.60938 14.5469 5.60938 15.2812
Q5.60938 16.1094 6.14062 16.6875
Q6.6875 17.2812 7.51562 17.2812
L70.3125 17.2812
Q71.0469 17.2812 71.5781 16.6875
Q72.125 16.1094 72.125 15.2812
Q72.125 14.5469 71.5781 13.9062
Q71.0469 13.2812 70.3125 13.2812
z

M7.51562 32.7188
Q6.6875 32.7188 6.14062 33.2969
Q5.60938 33.8906 5.60938 34.7188
Q5.60938 35.4531 6.14062 36.0781
Q6.6875 36.7188 7.51562 36.7188
L70.3125 36.7188
Q71.0469 36.7188 71.5781 36.0781
Q72.125 35.4531 72.125 34.7188
Q72.125 33.8906 71.5781 33.2969
Q71.0469 32.7188 70.3125 32.7188
z
" id="Cmr10-3d"/>
      <path d="
M9.03125 41.8438
L9.03125 51.8594
L19.0469 51.8594
L19.0469 41.8438
z

M9.03125 0
L9.03125 10.0156
L19.0469 10.0156
L19.0469 0
z
" id="ArialMT-3a"/>
      <path d="
M9.28125 0
L9.28125 3.51562
Q21.7812 3.51562 21.7812 6.6875
L21.7812 59.1875
Q16.6094 56.6875 8.6875 56.6875
L8.6875 60.2031
Q20.9531 60.2031 27.2031 66.6094
L28.6094 66.6094
Q28.9531 66.6094 29.2656 66.3281
Q29.5938 66.0625 29.5938 65.7188
L29.5938 6.6875
Q29.5938 3.51562 42.0938 3.51562
L42.0938 0
z
" id="Cmr10-31"/>
      <path d="
M61.9688 7.67188
Q68.5625 3.125 74.125 1.03125
L71.3438 -5.5625
Q63.625 -2.78125 55.9531 3.21875
Q48 -1.21875 38.375 -1.21875
Q28.6562 -1.21875 20.75 3.46875
Q12.8438 8.15625 8.5625 16.6406
Q4.29688 25.1406 4.29688 35.7969
Q4.29688 46.3906 8.59375 55.0781
Q12.8906 63.7656 20.8281 68.3125
Q28.7656 72.8594 38.5781 72.8594
Q48.4844 72.8594 56.4375 68.1406
Q64.4062 63.4219 68.5781 54.9531
Q72.75 46.4844 72.75 35.8438
Q72.75 27 70.0625 19.9375
Q67.3906 12.8906 61.9688 7.67188
M41.1094 19.7812
Q49.3125 17.4844 54.6406 12.9375
Q62.9844 20.5625 62.9844 35.8438
Q62.9844 44.5312 60.0312 51.0156
Q57.0781 57.5156 51.3906 61.1094
Q45.7031 64.7031 38.625 64.7031
Q28.0312 64.7031 21.0469 57.4531
Q14.0625 50.2031 14.0625 35.7969
Q14.0625 21.8281 20.9688 14.3594
Q27.875 6.89062 38.625 6.89062
Q43.7031 6.89062 48.1875 8.79688
Q43.75 11.6719 38.8125 12.8906
z
" id="ArialMT-51"/>
      <path d="
M10.6875 -1.125
Q9.46875 -1.125 8.59375 -0.34375
Q7.71875 0.4375 7.71875 1.70312
Q7.71875 2.29688 7.8125 2.59375
L15.2812 32.4219
Q16.0156 35.2031 16.0156 37.3125
Q16.0156 41.6094 13.0938 41.6094
Q9.96875 41.6094 8.45312 37.8594
Q6.9375 34.125 5.51562 28.4219
Q5.51562 28.125 5.21875 27.9531
Q4.9375 27.7812 4.6875 27.7812
L3.51562 27.7812
Q3.17188 27.7812 2.92188 28.1406
Q2.6875 28.5156 2.6875 28.8125
Q3.76562 33.1562 4.76562 36.1719
Q5.76562 39.2031 7.89062 41.6875
Q10.0156 44.1875 13.1875 44.1875
Q16.8906 44.1875 19.7969 41.8438
Q22.7031 39.5 22.7031 35.7969
Q25.6406 39.7031 29.5938 41.9375
Q33.5469 44.1875 38.1875 44.1875
Q43.4062 44.1875 46.5469 41.375
Q49.7031 38.5781 49.7031 33.4062
Q49.7031 30.4219 49.0312 27.875
L37.4062 -18.4062
Q37.1094 -19.8281 35.9375 -20.7031
Q34.7656 -21.5781 33.2969 -21.5781
Q32.0781 -21.5781 31.2031 -20.8125
Q30.3281 -20.0625 30.3281 -18.7969
Q30.3281 -18.2188 30.4219 -18.0156
L41.8906 28.0781
Q42.9219 32.1719 42.9219 34.9062
Q42.9219 37.7031 41.75 39.6562
Q40.5781 41.6094 37.9844 41.6094
Q28.1719 41.6094 21.6875 29.5
L14.8906 2.20312
Q14.5469 0.828125 13.3438 -0.140625
Q12.1562 -1.125 10.6875 -1.125" id="Cmmi10-b4"/>
     </defs>
     <g transform="translate(203.2875 736.2)scale(0.18 -0.18)">
      <use transform="translate(0.0 0.140625)" xlink:href="#ArialMT-51"/>
      <use transform="translate(77.783203125 0.140625)" xlink:href="#ArialMT-75"/>
      <use transform="translate(133.3984375 0.140625)" xlink:href="#ArialMT-61"/>
      <use transform="translate(189.013671875 0.140625)" xlink:href="#ArialMT-6e"/>
      <use transform="translate(244.62890625 0.140625)" xlink:href="#ArialMT-74"/>
      <use transform="translate(272.412109375 0.140625)" xlink:href="#ArialMT-75"/>
      <use transform="translate(328.02734375 0.140625)" xlink:href="#ArialMT-6d"/>
      <use transform="translate(411.328125 0.140625)" xlink:href="#ArialMT-20"/>
      <use transform="translate(439.111328125 0.140625)" xlink:href="#ArialMT-6c"/>
      <use transform="translate(461.328125 0.140625)" xlink:href="#ArialMT-69"/>
      <use transform="translate(483.544921875 0.140625)" xlink:href="#ArialMT-6d"/>
      <use transform="translate(566.845703125 0.140625)" xlink:href="#ArialMT-69"/>
      <use transform="translate(589.0625 0.140625)" xlink:href="#ArialMT-74"/>
      <use transform="translate(616.845703125 0.140625)" xlink:href="#ArialMT-20"/>
      <use transform="translate(644.62890625 0.140625)" xlink:href="#ArialMT-76"/>
      <use transform="translate(694.62890625 0.140625)" xlink:href="#ArialMT-69"/>
      <use transform="translate(716.845703125 0.140625)" xlink:href="#ArialMT-73"/>
      <use transform="translate(766.845703125 0.140625)" xlink:href="#ArialMT-69"/>
      <use transform="translate(789.0625 0.140625)" xlink:href="#ArialMT-62"/>
      <use transform="translate(844.677734375 0.140625)" xlink:href="#ArialMT-69"/>
      <use transform="translate(866.89453125 0.140625)" xlink:href="#ArialMT-6c"/>
      <use transform="translate(889.111328125 0.140625)" xlink:href="#ArialMT-69"/>
      <use transform="translate(911.328125 0.140625)" xlink:href="#ArialMT-74"/>
      <use transform="translate(939.111328125 0.140625)" xlink:href="#ArialMT-79"/>
      <use transform="translate(989.111328125 0.140625)" xlink:href="#ArialMT-3a"/>
      <use transform="translate(1016.89453125 0.140625)" xlink:href="#ArialMT-20"/>
      <use transform="translate(1044.67773438 0.140625)" xlink:href="#Cmmi10-b4"/>
      <use transform="translate(1111.84570312 0.140625)" xlink:href="#Cmr10-3d"/>
      <use transform="translate(1195.90429688 0.140625)" xlink:href="#Cmr10-31"/>
     </g>
    </g>
    <g id="line2d_86">
     <path d="
M152.887 756
L188.887 756" style="fill:none;stroke:#ff0000;stroke-linecap:square;stroke-width:3;"/>
    </g>
    <g id="line2d_87"/>
    <g id="text_15">
     <!-- Quantum limit visibility: $\eta=$-9.0 dB -->
     <defs>
      <path d="
M9.07812 0
L9.07812 10.0156
L19.0938 10.0156
L19.0938 0
z
" id="ArialMT-2e"/>
     </defs>
     <g transform="translate(203.2875 762.3)scale(0.18 -0.18)">
      <use transform="translate(0.0 0.140625)" xlink:href="#ArialMT-51"/>
      <use transform="translate(77.783203125 0.140625)" xlink:href="#ArialMT-75"/>
      <use transform="translate(133.3984375 0.140625)" xlink:href="#ArialMT-61"/>
      <use transform="translate(189.013671875 0.140625)" xlink:href="#ArialMT-6e"/>
      <use transform="translate(244.62890625 0.140625)" xlink:href="#ArialMT-74"/>
      <use transform="translate(272.412109375 0.140625)" xlink:href="#ArialMT-75"/>
      <use transform="translate(328.02734375 0.140625)" xlink:href="#ArialMT-6d"/>
      <use transform="translate(411.328125 0.140625)" xlink:href="#ArialMT-20"/>
      <use transform="translate(439.111328125 0.140625)" xlink:href="#ArialMT-6c"/>
      <use transform="translate(461.328125 0.140625)" xlink:href="#ArialMT-69"/>
      <use transform="translate(483.544921875 0.140625)" xlink:href="#ArialMT-6d"/>
      <use transform="translate(566.845703125 0.140625)" xlink:href="#ArialMT-69"/>
      <use transform="translate(589.0625 0.140625)" xlink:href="#ArialMT-74"/>
      <use transform="translate(616.845703125 0.140625)" xlink:href="#ArialMT-20"/>
      <use transform="translate(644.62890625 0.140625)" xlink:href="#ArialMT-76"/>
      <use transform="translate(694.62890625 0.140625)" xlink:href="#ArialMT-69"/>
      <use transform="translate(716.845703125 0.140625)" xlink:href="#ArialMT-73"/>
      <use transform="translate(766.845703125 0.140625)" xlink:href="#ArialMT-69"/>
      <use transform="translate(789.0625 0.140625)" xlink:href="#ArialMT-62"/>
      <use transform="translate(844.677734375 0.140625)" xlink:href="#ArialMT-69"/>
      <use transform="translate(866.89453125 0.140625)" xlink:href="#ArialMT-6c"/>
      <use transform="translate(889.111328125 0.140625)" xlink:href="#ArialMT-69"/>
      <use transform="translate(911.328125 0.140625)" xlink:href="#ArialMT-74"/>
      <use transform="translate(939.111328125 0.140625)" xlink:href="#ArialMT-79"/>
      <use transform="translate(989.111328125 0.140625)" xlink:href="#ArialMT-3a"/>
      <use transform="translate(1016.89453125 0.140625)" xlink:href="#ArialMT-20"/>
      <use transform="translate(1044.67773438 0.140625)" xlink:href="#Cmmi10-b4"/>
      <use transform="translate(1111.84570312 0.140625)" xlink:href="#Cmr10-3d"/>
      <use transform="translate(1195.90429688 0.140625)" xlink:href="#ArialMT-2d"/>
      <use transform="translate(1229.20507812 0.140625)" xlink:href="#ArialMT-39"/>
      <use transform="translate(1284.8203125 0.140625)" xlink:href="#ArialMT-2e"/>
      <use transform="translate(1312.60351562 0.140625)" xlink:href="#ArialMT-30"/>
      <use transform="translate(1368.21875 0.140625)" xlink:href="#ArialMT-20"/>
      <use transform="translate(1396.00195312 0.140625)" xlink:href="#ArialMT-64"/>
      <use transform="translate(1451.6171875 0.140625)" xlink:href="#ArialMT-42"/>
     </g>
    </g>
   </g>
  </g>
 </g>
 <defs>
  <clipPath id="p31a478d812">
   <rect height="695.52" width="847.4625" x="136.6875" y="86.94"/>
  </clipPath>
 </defs>
</svg>
